<svg width="164" height="30" viewBox="0 0 164 30" fill="none" xmlns="http://www.w3.org/2000/svg">
<circle cx="6.22321" cy="17.5716" r="6.22321" fill="#E2F1FF" fill-opacity="0.3"/>
<circle cx="20.5128" cy="16.4733" r="7.32143" fill="#E2F1FF" fill-opacity="0.3"/>
<circle cx="37.7309" cy="14.6431" r="9.15179" fill="#E2F1FF" fill-opacity="0.3"/>
<circle cx="54.9484" cy="16.4733" r="7.32143" fill="#E2F1FF" fill-opacity="0.3"/>
<circle cx="69.2379" cy="17.5716" r="6.22321" fill="#E2F1FF" fill-opacity="0.3"/>
<path d="M155.382 15.368H159.21L164 22.3306H159.669L155.382 15.368ZM151.554 6.95563H155.25V22.3306H151.554V6.95563ZM153.872 10.0965V6.95563H157.132C158.444 6.95563 159.538 7.16795 160.413 7.59259C161.288 8.01724 161.951 8.61027 162.403 9.3717C162.855 10.1185 163.081 10.9897 163.081 11.9854C163.081 12.9665 162.855 13.8378 162.403 14.5992C161.951 15.346 161.288 15.9317 160.413 16.3563C159.538 16.781 158.444 16.9933 157.132 16.9933H153.872V14.116H156.869C157.365 14.116 157.788 14.0428 158.138 13.8963C158.502 13.7353 158.779 13.5083 158.969 13.2154C159.159 12.9079 159.253 12.5419 159.253 12.1172C159.253 11.6926 159.159 11.3338 158.969 11.041C158.779 10.7335 158.502 10.4992 158.138 10.3381C157.788 10.1771 157.365 10.0965 156.869 10.0965H153.872Z" fill="#E2F1FF" fill-opacity="0.3"/>
<path d="M146.429 6.95563H150.089V22.3306H146.429V6.95563Z" fill="#E2F1FF" fill-opacity="0.3"/>
<path d="M141.269 6.98893H144.964V23.0628L133.993 13.6809V22.2974H130.321V6.22351L141.269 15.6054V6.98893Z" fill="#E2F1FF" fill-opacity="0.3"/>
<path d="M121.808 22.3306V19.2776H129.589V22.3306H121.808ZM121.808 10.0087V6.95563H129.589V10.0087H121.808ZM121.808 15.7413V12.7542H129.148V15.7413H121.808ZM119.339 6.95563H122.91V22.3306H119.339V6.95563Z" fill="#E2F1FF" fill-opacity="0.3"/>
<path d="M105.771 14.9437C105.771 15.8458 105.949 16.6461 106.307 17.3445C106.68 18.0284 107.194 18.5667 107.85 18.9596C108.521 19.3525 109.304 19.5489 110.198 19.5489C111.078 19.5489 111.846 19.3525 112.502 18.9596C113.173 18.5667 113.687 18.0284 114.045 17.3445C114.418 16.6461 114.604 15.8458 114.604 14.9437C114.604 14.0416 114.425 13.2486 114.067 12.5648C113.709 11.8663 113.202 11.3207 112.547 10.9278C111.891 10.535 111.108 10.3386 110.198 10.3386C109.304 10.3386 108.521 10.535 107.85 10.9278C107.194 11.3207 106.68 11.8663 106.307 12.5648C105.949 13.2486 105.771 14.0416 105.771 14.9437ZM101.768 14.9437C101.768 13.7652 101.976 12.6884 102.394 11.7136C102.826 10.7387 103.422 9.89478 104.183 9.18182C104.943 8.46885 105.838 7.92322 106.866 7.54491C107.895 7.15206 109.006 6.95563 110.198 6.95563C111.406 6.95563 112.517 7.15206 113.53 7.54491C114.559 7.92322 115.454 8.46885 116.214 9.18182C116.974 9.89478 117.563 10.7387 117.981 11.7136C118.398 12.6884 118.607 13.7652 118.607 14.9437C118.607 16.1223 118.398 17.2063 117.981 18.1957C117.578 19.1851 116.997 20.0436 116.236 20.7711C115.491 21.4986 114.604 22.0661 113.575 22.4735C112.547 22.8663 111.421 23.0628 110.198 23.0628C108.961 23.0628 107.828 22.8663 106.799 22.4735C105.771 22.0661 104.876 21.4986 104.116 20.7711C103.37 20.0436 102.789 19.1851 102.371 18.1957C101.969 17.2063 101.768 16.1223 101.768 14.9437Z" fill="#E2F1FF" fill-opacity="0.3"/>
<path d="M88.1482 15.8951V12.5565H99.686V15.8951H88.1482ZM97.3567 6.95563H101.036V22.3306H97.3567V6.95563ZM87.125 6.95563H90.804V22.3306H87.125V6.95563Z" fill="#E2F1FF" fill-opacity="0.3"/>
</svg>
