<svg width="227" height="58" viewBox="0 0 227 58" fill="none" xmlns="http://www.w3.org/2000/svg">
<circle cx="8.5" cy="33" r="8.5" fill="#E2F1FF" fill-opacity="0.3"/>
<circle cx="31" cy="31.5" r="10" fill="#E2F1FF" fill-opacity="0.3"/>
<circle cx="57.5" cy="29" r="12.5" fill="#E2F1FF" fill-opacity="0.3"/>
<circle cx="84" cy="31.5" r="10" fill="#E2F1FF" fill-opacity="0.3"/>
<circle cx="106.5" cy="33" r="8.5" fill="#E2F1FF" fill-opacity="0.3"/>
<path d="M133.44 11.8V43H127.36V11.8H133.44ZM139.32 31.8C139.32 30.7067 139.12 29.8667 138.72 29.28C138.32 28.6933 137.627 28.4 136.64 28.4C136 28.4 135.44 28.5467 134.96 28.84C134.48 29.1067 134.107 29.4933 133.84 30C133.573 30.48 133.44 31.08 133.44 31.8H132.4C132.4 30.3333 132.64 29.0133 133.12 27.84C133.6 26.64 134.32 25.6933 135.28 25C136.267 24.28 137.52 23.92 139.04 23.92C140.56 23.92 141.773 24.1867 142.68 24.72C143.613 25.2533 144.293 26.04 144.72 27.08C145.147 28.12 145.36 29.4 145.36 30.92V43H139.32V31.8ZM145.453 33.8C145.453 31.8533 145.907 30.16 146.813 28.72C147.72 27.28 148.973 26.16 150.573 25.36C152.173 24.56 153.973 24.16 155.973 24.16C157.973 24.16 159.76 24.56 161.333 25.36C162.933 26.16 164.187 27.28 165.093 28.72C166.027 30.16 166.493 31.8533 166.493 33.8C166.493 35.72 166.027 37.4 165.093 38.84C164.187 40.28 162.933 41.4 161.333 42.2C159.76 43 157.973 43.4 155.973 43.4C153.973 43.4 152.173 43 150.573 42.2C148.973 41.4 147.72 40.28 146.813 38.84C145.907 37.4 145.453 35.72 145.453 33.8ZM151.653 33.8C151.653 34.76 151.853 35.5867 152.253 36.28C152.653 36.9467 153.173 37.4667 153.813 37.84C154.453 38.2133 155.173 38.4 155.973 38.4C156.747 38.4 157.453 38.2133 158.093 37.84C158.76 37.4667 159.28 36.9467 159.653 36.28C160.053 35.5867 160.253 34.76 160.253 33.8C160.253 32.84 160.053 32.0133 159.653 31.32C159.28 30.6267 158.76 30.0933 158.093 29.72C157.453 29.3467 156.747 29.16 155.973 29.16C155.173 29.16 154.453 29.3467 153.813 29.72C153.173 30.0933 152.653 30.6267 152.253 31.32C151.853 32.0133 151.653 32.84 151.653 33.8ZM175.887 43.4C173.754 43.4 171.901 43.0133 170.327 42.24C168.781 41.44 167.581 40.32 166.727 38.88C165.874 37.44 165.447 35.7467 165.447 33.8C165.447 31.8267 165.861 30.12 166.687 28.68C167.514 27.24 168.701 26.1333 170.247 25.36C171.821 24.5867 173.674 24.2 175.807 24.2C177.941 24.2 179.741 24.5733 181.207 25.32C182.674 26.04 183.794 27.0933 184.567 28.48C185.341 29.8667 185.727 31.5467 185.727 33.52C185.727 33.8133 185.727 34.1067 185.727 34.4C185.727 34.6667 185.701 34.8933 185.647 35.08H168.847V31.72H180.207L178.767 33.56C178.901 33.3733 179.007 33.1467 179.087 32.88C179.194 32.5867 179.247 32.3467 179.247 32.16C179.247 31.36 179.101 30.6667 178.807 30.08C178.514 29.4933 178.101 29.04 177.567 28.72C177.034 28.4 176.407 28.24 175.687 28.24C174.781 28.24 174.021 28.44 173.407 28.84C172.794 29.24 172.327 29.8533 172.007 30.68C171.714 31.48 171.554 32.4933 171.527 33.72C171.527 34.84 171.687 35.8 172.007 36.6C172.327 37.4 172.807 38.0133 173.447 38.44C174.087 38.84 174.874 39.04 175.807 39.04C176.874 39.04 177.781 38.84 178.527 38.44C179.301 38.04 179.914 37.44 180.367 36.64L185.767 37.96C184.807 39.7733 183.501 41.1333 181.847 42.04C180.221 42.9467 178.234 43.4 175.887 43.4ZM197.817 31.8C197.817 30.7067 197.604 29.8667 197.177 29.28C196.777 28.6933 196.097 28.4 195.137 28.4C194.497 28.4 193.937 28.5333 193.457 28.8C192.977 29.0667 192.604 29.4533 192.337 29.96C192.07 30.4667 191.937 31.08 191.937 31.8V43H185.857V24.6H191.937V27.36C192.47 26.3467 193.19 25.56 194.097 25C195.03 24.44 196.177 24.16 197.537 24.16C199.83 24.16 201.497 24.7733 202.537 26C203.577 27.2267 204.097 28.9467 204.097 31.16V43H197.817V31.8ZM204.905 17.68C204.905 16.72 205.251 15.9467 205.945 15.36C206.638 14.7467 207.465 14.44 208.425 14.44C209.411 14.44 210.238 14.7467 210.905 15.36C211.598 15.9467 211.945 16.72 211.945 17.68C211.945 18.64 211.598 19.4267 210.905 20.04C210.238 20.6533 209.411 20.96 208.425 20.96C207.465 20.96 206.638 20.6533 205.945 20.04C205.251 19.4267 204.905 18.64 204.905 17.68ZM205.505 24.6H211.345V43H205.505V24.6ZM218.679 24.6V43H212.719V24.6H218.679ZM223.999 30.84C223.679 30.52 223.333 30.2667 222.959 30.08C222.613 29.8933 222.173 29.8 221.639 29.8C221.053 29.8 220.533 29.96 220.079 30.28C219.626 30.6 219.279 31.0667 219.039 31.68C218.799 32.2933 218.679 33.04 218.679 33.92L217.239 31.8C217.239 30.3333 217.519 29.0267 218.079 27.88C218.666 26.7333 219.426 25.8267 220.359 25.16C221.293 24.4933 222.266 24.16 223.279 24.16C223.946 24.16 224.586 24.2933 225.199 24.56C225.813 24.8267 226.279 25.2 226.599 25.68L223.999 30.84Z" fill="#E2F1FF" fill-opacity="0.3"/>
</svg>
