<svg width="61" height="30" viewBox="0 0 61 30" fill="none" xmlns="http://www.w3.org/2000/svg">
<path d="M5.67129 15.1485C8.48202 15.1485 10.7606 12.87 10.7606 10.0592C10.7606 7.24851 8.48202 4.96997 5.67129 4.96997C2.86057 4.96997 0.582031 7.24851 0.582031 10.0592C0.582031 12.87 2.86057 15.1485 5.67129 15.1485Z" fill="#E2F1FF"/>
<path d="M30.2156 0.183105C26.0847 0.183105 22.7329 3.53494 22.7329 7.6658C22.7329 11.7967 26.0847 15.1485 30.2156 15.1485C34.3465 15.1485 37.6983 11.7967 37.6983 7.6658C37.6983 3.53494 34.3465 0.183105 30.2156 0.183105ZM30.2156 14.0569C28.6832 12.4988 27.7094 10.213 27.7094 7.6658C27.7094 5.11348 28.6832 2.8328 30.2156 1.27475C31.748 2.8328 32.7218 5.11861 32.7218 7.6658C32.7218 10.213 31.748 12.4988 30.2156 14.0569Z" fill="#E2F1FF"/>
<path d="M54.7602 15.1485C57.5709 15.1485 59.8494 12.87 59.8494 10.0592C59.8494 7.24851 57.5709 4.96997 54.7602 4.96997C51.9494 4.96997 49.6709 7.24851 49.6709 10.0592C49.6709 12.87 51.9494 15.1485 54.7602 15.1485Z" fill="#E2F1FF"/>
<path d="M43.6844 3.08374C40.3787 3.08374 37.6982 5.76419 37.6982 9.06991C37.6982 12.3756 40.3787 15.0561 43.6844 15.0561C46.9901 15.0561 49.6706 12.3756 49.6706 9.06991C49.6706 5.76419 46.9901 3.08374 43.6844 3.08374ZM44.8068 13.8568C43.874 12.514 43.3154 10.8637 43.3154 9.06991C43.3154 7.27611 43.874 5.62581 44.8068 4.28303C46.2009 5.36443 47.108 7.10185 47.108 9.06991C47.108 11.038 46.2009 12.7703 44.8068 13.8568Z" fill="#E2F1FF"/>
<path d="M16.7467 3.17627C13.4409 3.17627 10.7605 5.85671 10.7605 9.16243C10.7605 12.4681 13.4409 15.1486 16.7467 15.1486C20.0524 15.1486 22.7328 12.4681 22.7328 9.16243C22.7328 5.85671 20.0524 3.17627 16.7467 3.17627ZM15.6243 13.9493C14.2302 12.8679 13.3231 11.1305 13.3231 9.16243C13.3231 7.19437 14.2302 5.45695 15.6243 4.37555C16.557 5.71834 17.1157 7.36863 17.1157 9.16243C17.1157 10.9562 16.557 12.6065 15.6243 13.9493Z" fill="#E2F1FF"/>
<path d="M1.32002 24.328V21.6783H10.5555V24.328H1.32002ZM8.68997 17.2348H11.6369V29.4326H8.68997V17.2348ZM0.5 17.2348H3.44695V29.4326H0.5V17.2348ZM15.0554 23.3337C15.0554 24.0563 15.1938 24.6918 15.4757 25.2505C15.7678 25.7989 16.1675 26.2243 16.6801 26.542C17.2028 26.8547 17.8127 27.0135 18.5097 27.0135C19.1965 27.0135 19.791 26.8547 20.3035 26.542C20.8263 26.2294 21.2261 25.7989 21.5079 25.2505C21.8001 24.6918 21.9436 24.0563 21.9436 23.3337C21.9436 22.611 21.8052 21.9806 21.5233 21.4323C21.2466 20.8736 20.8519 20.438 20.3394 20.1253C19.8269 19.8127 19.217 19.6538 18.5097 19.6538C17.8127 19.6538 17.2028 19.8127 16.6801 20.1253C16.1675 20.438 15.7678 20.8736 15.4757 21.4323C15.1938 21.9806 15.0554 22.6162 15.0554 23.3337ZM11.9342 23.3337C11.9342 22.3907 12.0982 21.5348 12.4211 20.7557C12.7593 19.9767 13.2206 19.3053 13.8151 18.7364C14.4096 18.1675 15.1066 17.7319 15.9062 17.4295C16.7057 17.1169 17.5718 16.958 18.5046 16.958C19.4476 16.958 20.3087 17.1169 21.1031 17.4295C21.9026 17.7319 22.5996 18.1675 23.1941 18.7364C23.7886 19.3053 24.2448 19.9818 24.5728 20.7557C24.8957 21.5348 25.0597 22.3958 25.0597 23.3337C25.0597 24.2767 24.8957 25.1377 24.5728 25.9321C24.2601 26.7214 23.804 27.4082 23.2146 27.9873C22.6355 28.5664 21.9436 29.0226 21.1389 29.3455C20.3394 29.6581 19.4579 29.817 18.5097 29.817C17.5462 29.817 16.6647 29.6581 15.86 29.3455C15.0605 29.0226 14.3635 28.5664 13.769 27.9873C13.1898 27.4082 12.7337 26.7214 12.4108 25.9321C12.0931 25.1429 11.9342 24.2767 11.9342 23.3337ZM27.325 29.4326V27.0084H33.4751V29.4326H27.325ZM27.325 19.659V17.2348H33.4751V19.659H27.325ZM27.325 24.205V21.8371H33.1266V24.205H27.325ZM25.3723 17.2348H28.1963V29.4326H25.3723V17.2348ZM46.5699 17.2348H49.5681V29.4326H46.5699V17.2348ZM53.6323 23.9077H56.6818L60.5 29.4326H57.0508L53.6323 23.9077ZM50.5829 17.2348H53.5298V29.4326H50.5829V17.2348ZM52.433 17.2348H55.0315C56.077 17.2348 56.9483 17.4039 57.6453 17.7422C58.3423 18.0804 58.8702 18.5519 59.229 19.1516C59.5877 19.7461 59.7671 20.4329 59.7671 21.2272C59.7671 22.0063 59.5877 22.6982 59.229 23.3029C58.8702 23.8974 58.3423 24.3587 57.6453 24.697C56.9483 25.0352 56.077 25.2044 55.0315 25.2044H52.433V22.9237H54.8214C55.216 22.9237 55.5542 22.8673 55.831 22.7494C56.1231 22.6213 56.3435 22.4419 56.4921 22.2113C56.6408 21.9653 56.7176 21.6783 56.7176 21.34C56.7176 21.0017 56.6408 20.7199 56.4921 20.4841C56.3435 20.2381 56.118 20.0536 55.831 19.9255C55.5542 19.7973 55.216 19.7358 54.8214 19.7358H52.433V17.2348Z" fill="#E2F1FF"/>
<path d="M42.7209 17.2348H45.5602V29.4331L44.8731 29.4335L37.1294 22.57V29.4377H34.3054V17.2348H34.9918L42.7209 24.1025V17.2348Z" fill="#E2F1FF"/>
</svg>
