<svg width="237" height="28" viewBox="0 0 237 28" fill="none" xmlns="http://www.w3.org/2000/svg">
<path d="M9.42913 27.8634C14.6367 27.8634 18.8583 23.6418 18.8583 18.4342C18.8583 13.2267 14.6367 9.00509 9.42913 9.00509C4.22157 9.00509 0 13.2267 0 18.4342C0 23.6418 4.22157 27.8634 9.42913 27.8634Z" fill="#E2F1FF"/>
<path d="M54.9036 0.13623C47.2502 0.13623 41.04 6.34634 41.04 13.9998C41.04 21.6533 47.2502 27.8634 54.9036 27.8634C62.5571 27.8634 68.7672 21.6533 68.7672 13.9998C68.7672 6.34634 62.5571 0.13623 54.9036 0.13623ZM54.9036 25.8408C52.0644 22.9542 50.2603 18.7191 50.2603 13.9998C50.2603 9.27099 52.0644 5.04545 54.9036 2.15878C57.7428 5.04545 59.547 9.28049 59.547 13.9998C59.547 18.7191 57.7428 22.9542 54.9036 25.8408Z" fill="#E2F1FF"/>
<path d="M100.379 27.8634C105.586 27.8634 109.808 23.6418 109.808 18.4342C109.808 13.2267 105.586 9.00509 100.379 9.00509C95.171 9.00509 90.9494 13.2267 90.9494 18.4342C90.9494 23.6418 95.171 27.8634 100.379 27.8634Z" fill="#E2F1FF"/>
<path d="M79.8579 5.51038C73.7333 5.51038 68.7671 10.4766 68.7671 16.6012C68.7671 22.7259 73.7333 27.6921 79.8579 27.6921C85.9826 27.6921 90.9488 22.7259 90.9488 16.6012C90.9488 10.4766 85.9826 5.51038 79.8579 5.51038ZM81.9375 25.4701C80.2093 22.9823 79.1742 19.9247 79.1742 16.6012C79.1742 13.2778 80.2093 10.2202 81.9375 7.73236C84.5203 9.73593 86.201 12.9549 86.201 16.6012C86.201 20.2476 84.5203 23.4571 81.9375 25.4701Z" fill="#E2F1FF"/>
<path d="M29.949 5.68181C23.8244 5.68181 18.8582 10.648 18.8582 16.7727C18.8582 22.8973 23.8244 27.8635 29.949 27.8635C36.0737 27.8635 41.0399 22.8973 41.0399 16.7727C41.0399 10.648 36.0737 5.68181 29.949 5.68181ZM27.8695 25.6416C25.2867 23.638 23.606 20.419 23.606 16.7727C23.606 13.1264 25.2867 9.90735 27.8695 7.90378C29.5977 10.3916 30.6327 13.4492 30.6327 16.7727C30.6327 20.0961 29.5977 23.1537 27.8695 25.6416Z" fill="#E2F1FF"/>
<path d="M127.354 17.4964V12.5872H144.465V17.4964H127.354ZM141.009 4.35449H146.469V26.954H141.009V4.35449ZM125.835 4.35449H131.295V26.954H125.835V4.35449ZM152.803 15.6543C152.803 16.9931 153.059 18.1706 153.581 19.2056C154.122 20.2216 154.863 21.0098 155.813 21.5985C156.781 22.1777 157.911 22.4721 159.203 22.4721C160.475 22.4721 161.576 22.1777 162.526 21.5985C163.495 21.0193 164.235 20.2216 164.757 19.2056C165.299 18.1706 165.565 16.9931 165.565 15.6543C165.565 14.3154 165.308 13.1474 164.786 12.1314C164.273 11.0964 163.542 10.2892 162.592 9.71C161.643 9.13077 160.513 8.83641 159.203 8.83641C157.911 8.83641 156.781 9.13077 155.813 9.71C154.863 10.2892 154.122 11.0964 153.581 12.1314C153.059 13.1474 152.803 14.3249 152.803 15.6543ZM147.02 15.6543C147.02 13.9071 147.324 12.3213 147.922 10.878C148.548 9.43464 149.403 8.19072 150.505 7.1367C151.606 6.08269 152.897 5.27556 154.379 4.71532C155.86 4.13609 157.465 3.84173 159.193 3.84173C160.94 3.84173 162.535 4.13609 164.007 4.71532C165.489 5.27556 166.78 6.08269 167.882 7.1367C168.983 8.19072 169.828 9.44414 170.436 10.878C171.034 12.3213 171.338 13.9166 171.338 15.6543C171.338 17.4014 171.034 18.9967 170.436 20.4685C169.857 21.9309 169.011 23.2032 167.92 24.2763C166.846 25.3493 165.565 26.1944 164.074 26.7926C162.592 27.3718 160.959 27.6662 159.203 27.6662C157.417 27.6662 155.784 27.3718 154.293 26.7926C152.812 26.1944 151.521 25.3493 150.419 24.2763C149.346 23.2032 148.501 21.9309 147.903 20.4685C147.314 19.0062 147.02 17.4014 147.02 15.6543ZM175.535 26.954V22.4626H186.93V26.954H175.535ZM175.535 8.84592V4.35449H186.93V8.84592H175.535ZM175.535 17.2685V12.8815H186.284V17.2685H175.535ZM171.917 4.35449H177.149V26.954H171.917V4.35449ZM211.191 4.35449H216.746V26.954H211.191V4.35449ZM224.276 16.7178H229.926L237 26.954H230.609L224.276 16.7178ZM218.626 4.35449H224.086V26.954H218.626V4.35449ZM222.054 4.35449H226.868C228.805 4.35449 230.42 4.66785 231.711 5.29456C233.002 5.92127 233.98 6.79486 234.645 7.90585C235.31 9.00734 235.642 10.2797 235.642 11.7516C235.642 13.1949 235.31 14.4768 234.645 15.5973C233.98 16.6988 233.002 17.5534 231.711 18.1801C230.42 18.8068 228.805 19.1201 226.868 19.1201H222.054V14.8946H226.479C227.21 14.8946 227.837 14.7902 228.35 14.5718C228.891 14.3344 229.299 14.002 229.574 13.5747C229.85 13.1189 229.992 12.5872 229.992 11.9605C229.992 11.3338 229.85 10.8115 229.574 10.3747C229.299 9.91892 228.881 9.57707 228.35 9.33968C227.837 9.10229 227.21 8.98834 226.479 8.98834H222.054V4.35449Z" fill="#E2F1FF"/>
<path d="M204.06 4.35449H209.32V26.955L208.047 26.9557L193.7 14.2394V26.9635H188.468V4.35449H189.74L204.06 17.0786V4.35449Z" fill="#E2F1FF"/>
</svg>
