<svg width="20" height="14" viewBox="0 0 20 14" fill="none" xmlns="http://www.w3.org/2000/svg">
<path d="M0 0.995417C0 0.445664 0.447715 0 1 0H19C19.5523 0 20 0.445664 20 0.995417C20 1.54517 19.5523 1.99083 19 1.99083H1C0.447716 1.99083 0 1.54517 0 0.995417Z" fill="#242832"/>
<path d="M0 7C0 6.45025 0.447715 6.00458 1 6.00458H19C19.5523 6.00458 20 6.45025 20 7C20 7.54975 19.5523 7.99542 19 7.99542H1C0.447716 7.99542 0 7.54975 0 7Z" fill="#242832"/>
<path d="M1 12.0092C0.447715 12.0092 0 12.4548 0 13.0046C0 13.5543 0.447716 14 1 14H19C19.5523 14 20 13.5543 20 13.0046C20 12.4548 19.5523 12.0092 19 12.0092H1Z" fill="#242832"/>
</svg>
