<svg width="2707" height="111" viewBox="0 0 2707 111" fill="none" xmlns="http://www.w3.org/2000/svg">
<path d="M2 108.999L125.339 13.7919C134.339 6.84506 146.892 6.84506 155.891 13.7919L263.955 97.2074C272.954 104.154 285.507 104.154 294.507 97.2075L313.885 82.2495M2 2L125.339 97.2075C134.339 104.154 146.892 104.154 155.891 97.2074L209.923 55.4997L263.955 13.7919C272.954 6.84506 285.507 6.84507 294.507 13.7919L313.885 28.7498M71.3077 2L194.647 97.2075C203.646 104.154 216.2 104.154 225.199 97.2074L279.231 55.4997M71.3077 108.999L194.647 13.7919C203.646 6.84507 216.2 6.84507 225.199 13.7919L279.231 55.4997M279.231 55.4997L313.885 28.7498M279.231 55.4997L313.885 82.2495M313.885 28.7498L333.262 13.7919C342.262 6.84507 354.815 6.84507 363.815 13.7919L383.192 28.7498M313.885 28.7498L348.538 55.4997M417.846 55.4997L471.878 97.2074C480.877 104.154 493.43 104.154 502.43 97.2075L610.493 13.7919C619.492 6.84507 632.046 6.84507 641.045 13.7919L695.077 55.4997M417.846 55.4997L383.192 28.7498M417.846 55.4997L383.192 82.2495M417.846 55.4997L471.878 13.7919C480.877 6.84506 493.43 6.84507 502.43 13.7919L610.493 97.2075C619.492 104.154 632.046 104.154 641.045 97.2074L695.077 55.4997M383.192 28.7498L402.57 13.7919C411.569 6.84507 424.123 6.84507 433.122 13.7919L541.185 97.2075C550.185 104.154 562.738 104.154 571.738 97.2074L625.769 55.4997L679.801 13.7919C688.8 6.84506 701.354 6.84507 710.353 13.7919L729.731 28.7498M383.192 28.7498L348.538 55.4997M313.885 82.2495L333.262 97.2075C342.262 104.154 354.815 104.154 363.815 97.2074L383.192 82.2495M313.885 82.2495L348.538 55.4997M348.538 55.4997L383.192 82.2495M383.192 82.2495L402.57 97.2074C411.569 104.154 424.123 104.154 433.122 97.2074L541.185 13.7919C550.185 6.84506 562.738 6.84506 571.738 13.7919L679.801 97.2075C688.8 104.154 701.354 104.154 710.353 97.2075L729.731 82.2495M695.077 55.4997L729.731 28.7498M695.077 55.4997L729.731 82.2495M729.731 28.7498L749.108 13.7919C758.108 6.84508 770.661 6.84508 779.661 13.7919L799.038 28.7498M729.731 28.7498L764.385 55.4997M833.692 55.4997L887.724 97.2075C896.723 104.154 909.277 104.154 918.276 97.2075L1025.11 14.7389C1035.12 7.01366 1048.11 7.01366 1058.12 14.7389L1110.92 55.5M833.692 55.4997L799.038 28.7498M833.692 55.4997L799.038 82.2495M833.692 55.4997L887.724 13.7919C896.723 6.84507 909.277 6.84509 918.276 13.7919L1025.11 96.2611C1035.12 103.986 1048.11 103.986 1058.12 96.2611L1110.92 55.5M799.038 28.7498L818.416 13.7919C827.416 6.84508 839.969 6.84509 848.968 13.7919L955.805 96.2611C965.813 103.986 978.802 103.986 988.81 96.2611L1041.62 55.5L1094.42 14.7389C1104.43 7.01366 1117.42 7.01366 1127.43 14.7389L1145.58 28.7502M799.038 28.7498L764.385 55.4997M729.731 82.2495L749.108 97.2074C758.108 104.154 770.661 104.154 779.661 97.2074L799.038 82.2495M729.731 82.2495L764.385 55.4997M764.385 55.4997L799.038 82.2495M799.038 82.2495L818.416 97.2075C827.416 104.154 839.969 104.154 848.968 97.2075L955.805 14.7389C965.813 7.01365 978.802 7.01365 988.81 14.7389L1094.42 96.2611C1104.43 103.986 1117.42 103.986 1127.43 96.2611L1145.58 82.2498M1110.92 55.5L1145.58 28.7502M1110.92 55.5L1145.58 82.2498M1145.58 28.7502L1163.73 14.7389C1173.74 7.01366 1186.73 7.01366 1196.73 14.7389L1214.88 28.7502M1145.58 28.7502L1180.23 55.5M1249.54 55.5L1302.34 96.2611C1312.35 103.986 1325.34 103.986 1335.35 96.2611L1440.96 14.7389C1450.97 7.01366 1463.96 7.01366 1473.96 14.7389L1526.77 55.5M1249.54 55.5L1214.88 28.7502M1249.54 55.5L1214.88 82.2498M1249.54 55.5L1302.34 14.7389C1312.35 7.01366 1325.34 7.01366 1335.35 14.7389L1440.96 96.2611C1450.97 103.986 1463.96 103.986 1473.96 96.2611L1526.77 55.5M1214.88 28.7502L1233.04 14.7389C1243.04 7.01366 1256.03 7.01366 1266.04 14.7389L1371.65 96.2611C1381.66 103.986 1394.65 103.986 1404.66 96.2611L1457.46 55.5L1510.27 14.7389C1520.27 7.01366 1533.26 7.01366 1543.27 14.7389L1561.42 28.7502M1214.88 28.7502L1180.23 55.5M1145.58 82.2498L1163.73 96.2611C1173.74 103.986 1186.73 103.986 1196.73 96.2611L1214.88 82.2498M1145.58 82.2498L1180.23 55.5M1180.23 55.5L1214.88 82.2498M1214.88 82.2498L1233.04 96.2611C1243.04 103.986 1256.03 103.986 1266.04 96.2611L1371.65 14.7389C1381.66 7.01365 1394.65 7.01365 1404.66 14.7389L1510.27 96.2611C1520.27 103.986 1533.26 103.986 1543.27 96.2611L1561.42 82.2498M1526.77 55.5L1561.42 28.7502M1526.77 55.5L1561.42 82.2498M1561.42 28.7502L1579.57 14.7389C1589.58 7.01366 1602.57 7.01366 1612.58 14.7389L1630.73 28.7502M1561.42 28.7502L1596.08 55.5M1665.38 55.5L1630.73 28.7502M1665.38 55.5L1630.73 82.2498M1665.38 55.5L1691.02 35.7089L1700.04 28.7502M1665.38 55.5L1691.02 75.2911L1700.04 82.2498M1630.73 28.7502L1650.11 13.7922C1659.11 6.84542 1671.66 6.84541 1680.66 13.7922L1700.04 28.7502M1630.73 28.7502L1596.08 55.5M1561.42 82.2498L1579.57 96.2611C1589.58 103.986 1602.57 103.986 1612.58 96.2611L1630.73 82.2498M1561.42 82.2498L1596.08 55.5M1596.08 55.5L1630.73 82.2498M1630.73 82.2498L1650.11 97.2078C1659.11 104.155 1671.66 104.155 1680.66 97.2078L1700.04 82.2498M1700.04 28.7502L1719.42 13.7888C1728.42 6.84378 1740.97 6.84378 1749.96 13.7888L1769.35 28.7502M1700.04 28.7502L1734.69 55.5M1804 55.5L1858.04 97.2112C1867.03 104.156 1879.58 104.156 1888.58 97.2112L1995.42 14.7392C2005.43 7.014 2018.42 7.014 2028.43 14.7392L2081.23 55.5003M1804 55.5L1769.35 28.7502M1804 55.5L1769.35 82.2498M1804 55.5L1858.04 13.7889C1867.03 6.84377 1879.58 6.84379 1888.58 13.7889L1995.42 96.2615C2005.43 103.987 2018.42 103.987 2028.43 96.2614L2081.23 55.5003M1769.35 28.7502L1788.73 13.7888C1797.73 6.84377 1810.27 6.84379 1819.27 13.7889L1926.11 96.2615C1936.12 103.987 1949.11 103.987 1959.12 96.2614L2011.92 55.5003L2064.73 14.7392C2074.74 7.014 2087.73 7.014 2097.73 14.7392L2115.88 28.7505M1769.35 28.7502L1734.69 55.5M1700.04 82.2498L1719.42 97.2111C1728.42 104.156 1740.97 104.156 1749.96 97.2111L1769.35 82.2498M1700.04 82.2498L1734.69 55.5M1734.69 55.5L1769.35 82.2498M1769.35 82.2498L1788.73 97.2112C1797.73 104.156 1810.27 104.156 1819.27 97.2112L1926.11 14.7392C1936.12 7.01399 1949.11 7.01399 1959.12 14.7392L2064.73 96.2614C2074.74 103.987 2087.73 103.987 2097.73 96.2614L2115.88 82.2502M2081.23 55.5003L2115.88 28.7505M2081.23 55.5003L2115.88 82.2502M2115.88 28.7505L2134.04 14.7392C2144.04 7.014 2157.03 7.014 2167.04 14.7392L2185.19 28.7505M2115.88 28.7505L2150.54 55.5003M2219.85 55.5003L2272.65 96.2614C2282.66 103.987 2295.65 103.987 2305.66 96.2615L2411.27 14.7392C2421.27 7.014 2434.26 7.014 2444.27 14.7392L2497.08 55.5003M2219.85 55.5003L2185.19 28.7505M2219.85 55.5003L2185.19 82.2502M2219.85 55.5003L2272.65 14.7392C2282.66 7.014 2295.65 7.014 2305.66 14.7392L2411.27 96.2615C2421.27 103.987 2434.26 103.987 2444.27 96.2614L2497.08 55.5003M2185.19 28.7505L2203.34 14.7392C2213.35 7.014 2226.34 7.014 2236.35 14.7392L2341.96 96.2615C2351.97 103.987 2364.96 103.987 2374.96 96.2614L2427.77 55.5003L2480.57 14.7392C2490.58 7.014 2503.57 7.014 2513.58 14.7392L2531.73 28.7505M2185.19 28.7505L2150.54 55.5003M2115.88 82.2502L2134.04 96.2614C2144.04 103.987 2157.03 103.987 2167.04 96.2614L2185.19 82.2502M2115.88 82.2502L2150.54 55.5003M2150.54 55.5003L2185.19 82.2502M2185.19 82.2502L2203.34 96.2614C2213.35 103.987 2226.34 103.987 2236.35 96.2614L2341.96 14.7392C2351.97 7.01399 2364.96 7.01399 2374.96 14.7392L2480.57 96.2614C2490.58 103.987 2503.57 103.987 2513.58 96.2614L2531.73 82.2502M2497.08 55.5003L2531.73 28.7505M2497.08 55.5003L2531.73 82.2502M2531.73 28.7505L2549.88 14.7392C2559.89 7.014 2572.88 7.014 2582.89 14.7392L2601.04 28.7505M2531.73 28.7505L2566.38 55.5003M2705 109L2635.69 55.5003M2635.69 55.5003L2601.04 28.7505M2635.69 55.5003L2601.04 82.2502M2635.69 55.5003L2705 2.00068M2601.04 28.7505L2635.69 2.00068M2601.04 28.7505L2566.38 55.5003M2531.73 82.2502L2549.88 96.2614C2559.89 103.987 2572.88 103.987 2582.89 96.2614L2601.04 82.2502M2531.73 82.2502L2566.38 55.5003M2566.38 55.5003L2601.04 82.2502M2601.04 82.2502L2635.69 109" stroke="url(#paint0_linear_917_41)" stroke-width="4"/>
<defs>
<linearGradient id="paint0_linear_917_41" x1="2" y1="55.4998" x2="1734.69" y2="55.4998" gradientUnits="userSpaceOnUse">
<stop offset="0.367068" stop-color="#E2F1FF" stop-opacity="0.6"/>
<stop offset="0.3751" stop-color="#7B808E" stop-opacity="0.15"/>
</linearGradient>
</defs>
</svg>
