<svg width="56" height="1345" viewBox="0 0 56 1345" fill="none" xmlns="http://www.w3.org/2000/svg">
<path d="M28.0001 1226.39L4.611 1256.7C0.716341 1261.74 0.716345 1268.78 4.611 1273.83L43 1323.57M28.0001 1226.39L43 1206.96M28.0001 1226.39L51.3892 1256.7C55.2838 1261.74 55.2838 1268.78 51.3892 1273.83L13.0001 1323.57M28.0001 1226.39L13.0001 1206.96M43 1206.96L51.3892 1196.09C55.2838 1191.04 55.2838 1184 51.3892 1178.96L43 1168.09M43 1206.96L51.3892 1217.83C55.2838 1222.87 55.2838 1229.91 51.3892 1234.96L28.0001 1265.26L4.611 1295.57C0.716341 1300.61 0.716347 1307.65 4.61101 1312.7L13.0001 1323.57M43 1206.96L28.0001 1187.52M28.0001 1148.65L4.611 1118.35C0.716342 1113.3 0.716334 1106.26 4.61099 1101.22L51.3892 1040.61C55.2838 1035.56 55.2838 1028.52 51.3892 1023.48L28.0001 993.174M28.0001 1148.65L43 1168.09M28.0001 1148.65L13.0001 1168.09M28.0001 1148.65L51.3892 1118.35C55.2838 1113.3 55.2838 1106.26 51.3892 1101.22L4.61099 1040.61C0.716334 1035.56 0.716342 1028.52 4.611 1023.48L28.0001 993.174M43 1168.09L51.3892 1157.22C55.2838 1152.17 55.2838 1145.13 51.3892 1140.09L4.61101 1079.48C0.716351 1074.43 0.716339 1067.39 4.611 1062.35L28.0001 1032.04L51.3892 1001.74C55.2838 996.693 55.2839 989.655 51.3892 984.609L43 973.739M43 1168.09L28.0001 1187.52M13.0001 1206.96L4.61101 1196.09C0.716348 1191.04 0.716343 1184 4.611 1178.96L13.0001 1168.09M13.0001 1206.96L28.0001 1187.52M13.0001 1206.96L4.61099 1217.83C0.716335 1222.87 0.71634 1229.91 4.611 1234.96L51.3892 1295.57C55.2838 1300.61 55.2838 1307.65 51.3892 1312.7L43 1323.57M28.0001 1187.52L13.0001 1168.09M13.0001 1168.09L4.61099 1157.22C0.716336 1152.17 0.716342 1145.13 4.611 1140.09L51.3892 1079.48C55.2838 1074.43 55.2839 1067.39 51.3892 1062.35L4.61099 1001.74C0.716338 996.693 0.716335 989.655 4.61099 984.609L13.0001 973.739M28.0001 993.174L43 973.739M28.0001 993.174L13.0001 973.739M43 973.739L51.3892 962.87C55.2838 957.824 55.2838 950.785 51.3892 945.739L43 934.87M43 973.739L28.0001 954.304M28.0001 915.435L4.61099 885.131C0.716335 880.084 0.71634 873.046 4.61099 868L50.8567 808.081C55.1886 802.469 55.1886 795.184 50.8567 789.571L27.9999 759.957M28.0001 915.435L43 934.87M28.0001 915.435L13.0001 934.87M28.0001 915.435L51.3892 885.131C55.2838 880.084 55.2838 873.046 51.3892 868L5.14313 808.081C0.811213 802.469 0.811213 795.184 5.14313 789.571L27.9999 759.957M43 934.87L51.3892 924C55.2838 918.954 55.2838 911.916 51.3892 906.869L5.14313 846.951C0.811213 841.338 0.811213 834.053 5.14313 828.441L27.9999 798.826L50.8567 769.212C55.1886 763.599 55.1886 756.314 50.8567 750.702L42.9999 740.522M43 934.87L28.0001 954.304M13.0001 973.739L4.61102 962.87C0.716351 957.824 0.716347 950.785 4.61101 945.739L13.0001 934.87M13.0001 973.739L28.0001 954.304M28.0001 954.304L13.0001 934.87M13.0001 934.87L4.61098 924C0.716328 918.954 0.716326 911.916 4.61097 906.869L50.8567 846.951C55.1886 841.338 55.1886 834.053 50.8567 828.441L5.14313 769.212C0.811213 763.599 0.811213 756.314 5.14313 750.702L13 740.522M27.9999 759.957L42.9999 740.522M27.9999 759.957L13 740.522M42.9999 740.522L50.8567 730.342C55.1886 724.729 55.1886 717.445 50.8567 711.832L42.9999 701.652M42.9999 740.522L27.9999 721.087M27.9999 682.217L5.14313 652.603C0.811213 646.99 0.811213 639.706 5.14313 634.093L50.8567 574.864C55.1886 569.251 55.1886 561.966 50.8567 556.354L27.9999 526.739M27.9999 682.217L42.9999 701.652M27.9999 682.217L13 701.652M27.9999 682.217L50.8567 652.603C55.1886 646.99 55.1886 639.706 50.8567 634.093L5.14313 574.864C0.811213 569.251 0.811213 561.966 5.14313 556.354L27.9999 526.739M42.9999 701.652L50.8567 691.472C55.1886 685.86 55.1886 678.575 50.8567 672.962L5.14313 613.733C0.811213 608.121 0.811213 600.836 5.14313 595.223L27.9999 565.609L50.8567 535.994C55.1886 530.382 55.1886 523.097 50.8567 517.484L42.9999 507.304M42.9999 701.652L27.9999 721.087M13 740.522L5.14313 730.342C0.811213 724.729 0.811213 717.445 5.14313 711.832L13 701.652M13 740.522L27.9999 721.087M27.9999 721.087L13 701.652M13 701.652L5.14313 691.472C0.811213 685.86 0.811213 678.575 5.14313 672.962L50.8567 613.733C55.1886 608.121 55.1886 600.836 50.8567 595.223L5.14313 535.994C0.811213 530.382 0.811213 523.097 5.14313 517.484L13 507.304M27.9999 526.739L42.9999 507.304M27.9999 526.739L13 507.304M42.9999 507.304L50.8567 497.125C55.1886 491.512 55.1886 484.227 50.8567 478.615L42.9999 468.435M42.9999 507.304L27.9999 487.87M27.9999 449L42.9999 468.435M27.9999 449L13 468.435M27.9999 449L39.0978 434.621L42.9999 429.565M27.9999 449L16.902 434.621L13 429.565M42.9999 468.435L51.389 457.565C55.2836 452.519 55.2837 445.481 51.389 440.435L42.9999 429.565M42.9999 468.435L27.9999 487.87M13 507.304L5.14313 497.125C0.811213 491.512 0.811213 484.227 5.14313 478.615L13 468.435M13 507.304L27.9999 487.87M27.9999 487.87L13 468.435M13 468.435L4.61084 457.565C0.716168 452.519 0.716154 445.481 4.61081 440.435L13 429.565M42.9999 429.565L51.3894 418.695C55.2839 413.649 55.2839 406.612 51.3894 401.566L42.9999 390.696M42.9999 429.565L27.9999 410.13M27.9999 371.261L4.61038 340.956C0.715946 335.91 0.715935 328.873 4.61036 323.827L50.8565 263.907C55.1884 258.295 55.1884 251.01 50.8565 245.397L27.9997 215.783M27.9999 371.261L42.9999 390.696M27.9999 371.261L13 390.696M27.9999 371.261L51.3894 340.956C55.2839 335.91 55.2838 328.873 51.3894 323.827L5.14294 263.907C0.811018 258.295 0.811022 251.01 5.14294 245.397L27.9997 215.783M42.9999 390.696L51.3894 379.826C55.2839 374.78 55.2838 367.742 51.3894 362.696L5.14294 302.777C0.811018 297.164 0.811022 289.879 5.14294 284.267L27.9997 254.652L50.8565 225.038C55.1884 219.425 55.1884 212.14 50.8565 206.527L42.9997 196.348M42.9999 390.696L27.9999 410.13M13 429.565L4.6104 418.695C0.715954 413.649 0.715954 406.612 4.6104 401.566L13 390.696M13 429.565L27.9999 410.13M27.9999 410.13L13 390.696M13 390.696L4.61037 379.826C0.715941 374.78 0.715937 367.742 4.61036 362.696L50.8565 302.777C55.1884 297.164 55.1884 289.879 50.8565 284.267L5.14294 225.038C0.811022 219.425 0.811022 212.14 5.14294 206.527L12.9998 196.348M27.9997 215.783L42.9997 196.348M27.9997 215.783L12.9998 196.348M42.9997 196.348L50.8565 186.168C55.1884 180.555 55.1884 173.271 50.8565 167.658L42.9997 157.478M42.9997 196.348L27.9997 176.913M27.9997 138.044L5.14294 108.429C0.811022 102.816 0.811018 95.5315 5.14294 89.9188L50.8565 30.6899C55.1884 25.0772 55.1884 17.7924 50.8565 12.1798L42.9997 2L27.9997 21.4349L5.14294 51.0494C0.811022 56.6621 0.811018 63.9467 5.14294 69.5594L50.8565 128.788C55.1884 134.401 55.1884 141.686 50.8565 147.299L42.9997 157.478M27.9997 138.044L42.9997 157.478M27.9997 138.044L12.9998 157.478M27.9997 138.044L50.8565 108.429C55.1884 102.816 55.1884 95.5315 50.8565 89.9188L5.14294 30.6899C0.811018 25.0772 0.811022 17.7924 5.14294 12.1798L12.9998 2L50.8565 51.0494C55.1884 56.6621 55.1884 63.9467 50.8565 69.5594L5.14294 128.788C0.811022 134.401 0.811022 141.686 5.14294 147.299L12.9998 157.478M42.9997 157.478L27.9997 176.913M12.9998 196.348L5.14294 186.168C0.811022 180.555 0.811022 173.271 5.14294 167.658L12.9998 157.478M12.9998 196.348L27.9997 176.913M27.9997 176.913L12.9998 157.478M13.0001 1323.57L28.0001 1343L43 1323.57" stroke="url(#paint0_linear_262_1486)" stroke-width="2"/>
<defs>
<linearGradient id="paint0_linear_262_1486" x1="28" y1="1342.95" x2="28.0001" y2="1.99999" gradientUnits="userSpaceOnUse">
<stop offset="0.79469" stop-color="#7B808E" stop-opacity="0.15"/>
<stop offset="0.810585" stop-color="#E2F1FF" stop-opacity="0.6"/>
</linearGradient>
</defs>
</svg>
