<svg width="1440" height="850" viewBox="0 0 1440 850" fill="none" xmlns="http://www.w3.org/2000/svg">
<path fill-rule="evenodd" clip-rule="evenodd" d="M20 0V0C8.95431 0 0 8.9543 0 20V20C0 8.9543 8.95431 0 20 0ZM96.5685 0C85.9599 0 75.7857 4.21427 68.2843 11.7157L11.7157 68.2843C4.21426 75.7857 0 85.9599 0 96.5685V753.431C0 764.04 4.21427 774.214 11.7157 781.716L68.2843 838.284C75.7857 845.786 85.9599 850 96.5686 850H1343.43C1354.04 850 1364.21 845.786 1371.72 838.284L1428.28 781.716C1435.79 774.214 1440 764.04 1440 753.431V96.5685C1440 85.9599 1435.79 75.7857 1428.28 68.2843L1371.72 11.7157C1364.21 4.21426 1354.04 0 1343.43 0H96.5685ZM1420 0C1431.05 0 1440 8.95431 1440 20V20C1440 8.95431 1431.05 0 1420 0V0ZM1440 830C1440 841.046 1431.05 850 1420 850V850C1431.05 850 1440 841.046 1440 830V830ZM20 850C8.95432 850 0 841.046 0 830V830C0 841.046 8.95431 850 20 850V850Z" fill="#E2F1FF"/>
</svg>
