<svg width="16" height="17" viewBox="0 0 16 17" fill="none" xmlns="http://www.w3.org/2000/svg">
<path fill-rule="evenodd" clip-rule="evenodd" d="M0 8.64288C0 5.4472 0 3.84936 0.761504 2.69849C1.10155 2.18456 1.54168 1.74444 2.0556 1.40439C3.20648 0.642883 4.80432 0.642883 8 0.642883C11.1957 0.642883 12.7935 0.642883 13.9444 1.40439C14.4583 1.74444 14.8984 2.18456 15.2385 2.69849C16 3.84936 16 5.4472 16 8.64288C16 11.8386 16 13.4364 15.2385 14.5873C14.8984 15.1012 14.4583 15.5413 13.9444 15.8814C12.7935 16.6429 11.1957 16.6429 8 16.6429C4.80432 16.6429 3.20648 16.6429 2.0556 15.8814C1.54168 15.5413 1.10155 15.1012 0.761504 14.5873C0 13.4364 0 11.8386 0 8.64288ZM12 8.64288C12 10.852 10.2091 12.6429 8 12.6429C5.79086 12.6429 4 10.852 4 8.64288C4 6.43374 5.79086 4.64288 8 4.64288C10.2091 4.64288 12 6.43374 12 8.64288ZM8 11.2896C9.46173 11.2896 10.6467 10.1046 10.6467 8.64288C10.6467 7.18116 9.46173 5.99619 8 5.99619C6.53827 5.99619 5.35331 7.18116 5.35331 8.64288C5.35331 10.1046 6.53827 11.2896 8 11.2896ZM12 5.64288C12.5523 5.64288 13 5.19517 13 4.64288C13 4.0906 12.5523 3.64288 12 3.64288C11.4477 3.64288 11 4.0906 11 4.64288C11 5.19517 11.4477 5.64288 12 5.64288Z" fill="#E2F1FF" fill-opacity="0.3"/>
</svg>
