<svg width="16" height="16" viewBox="0 0 16 16" fill="none" xmlns="http://www.w3.org/2000/svg">
<path d="M0 1.88531C0 1.38025 0.180185 0.96358 0.540541 0.635308C0.900896 0.30702 1.36937 0.142883 1.94595 0.142883C2.51223 0.142883 2.97039 0.304489 3.32046 0.627732C3.68082 0.961065 3.861 1.3954 3.861 1.93076C3.861 2.41561 3.68598 2.81964 3.33591 3.14288C2.97555 3.47622 2.50193 3.64288 1.91506 3.64288H1.89961C1.33333 3.64288 0.875166 3.47622 0.525097 3.14288C0.175027 2.80955 0 2.39035 0 1.88531ZM0.200772 15.1429V5.02167H3.62934V15.1429H0.200772ZM5.52896 15.1429H8.95753V9.49137C8.95753 9.13782 8.99872 8.8651 9.08108 8.67319C9.22522 8.32975 9.44402 8.03934 9.73745 7.80197C10.0309 7.5646 10.399 7.44591 10.8417 7.44591C11.9949 7.44591 12.5714 8.20854 12.5714 9.73379V15.1429H16V9.33985C16 7.8449 15.6396 6.71107 14.9189 5.93834C14.1982 5.16561 13.2458 4.77925 12.0618 4.77925C10.7336 4.77925 9.69884 5.33985 8.95753 6.46106V6.49137H8.94209L8.95753 6.46106V5.02167H5.52896C5.54954 5.3449 5.55985 6.34994 5.55985 8.03682C5.55985 9.72369 5.54954 12.0924 5.52896 15.1429Z" fill="#E2F1FF" fill-opacity="0.3"/>
</svg>
