<svg width="16" height="14" viewBox="0 0 16 14" fill="none" xmlns="http://www.w3.org/2000/svg">
<path d="M10.6907 0.145769V0.142883H11.4409L11.7151 0.197711C11.8978 0.233306 12.0637 0.279953 12.2128 0.337667C12.3619 0.395381 12.5062 0.462718 12.6456 0.539665C12.7851 0.616611 12.9116 0.695015 13.0251 0.774848C13.1376 0.853728 13.2386 0.937413 13.3281 1.0259C13.4165 1.11536 13.5546 1.13844 13.7421 1.09516C13.9297 1.05187 14.1316 0.99175 14.3481 0.914803C14.5645 0.837857 14.7785 0.751286 14.9901 0.655092C15.2017 0.558898 15.3306 0.497822 15.3768 0.471851C15.422 0.444928 15.446 0.430499 15.4489 0.428566L15.4518 0.424237L15.4662 0.417023L15.4806 0.409809L15.495 0.402595L15.5095 0.395381L15.5124 0.391052L15.5167 0.388166L15.521 0.385281L15.5239 0.380952L15.5383 0.376624L15.5528 0.373738L15.5499 0.395381L15.5455 0.417023L15.5383 0.438666L15.5311 0.460308L15.5239 0.474737L15.5167 0.489165L15.5095 0.510808C15.5047 0.525236 15.4999 0.544469 15.495 0.568521C15.4902 0.592574 15.4445 0.688753 15.358 0.85709C15.2714 1.02543 15.1632 1.19616 15.0334 1.3693C14.9035 1.54244 14.7871 1.67325 14.6842 1.76175C14.5804 1.85121 14.5116 1.91373 14.4779 1.94932C14.4442 1.98587 14.4034 2.01953 14.3553 2.05032L14.2831 2.09793L14.2687 2.10515L14.2543 2.11236L14.2514 2.11669L14.2471 2.11958L14.2427 2.12246L14.2399 2.12679L14.2254 2.134L14.211 2.14122L14.2081 2.14555L14.2038 2.14843L14.1995 2.15132L14.1966 2.15565L14.1937 2.15998L14.1894 2.16286L14.185 2.16575L14.1821 2.17008H14.2543L14.6583 2.0835C14.9276 2.02579 15.1849 1.95606 15.4301 1.87429L15.8197 1.74444L15.8629 1.73001L15.8846 1.72279L15.899 1.71558L15.9134 1.70837L15.9279 1.70115L15.9423 1.69394L15.9711 1.68961L16 1.68672V1.71558L15.9928 1.71847L15.9856 1.72279L15.9827 1.72712L15.9784 1.73001L15.974 1.73289L15.9711 1.73722L15.9683 1.74155L15.9639 1.74444L15.9596 1.74732L15.9567 1.75165L15.9538 1.75598L15.9495 1.75887L15.9423 1.77329L15.9351 1.78772L15.9307 1.79061C15.9288 1.79349 15.8678 1.87525 15.7475 2.03589C15.6273 2.19749 15.5624 2.27924 15.5528 2.28117C15.5431 2.28406 15.5297 2.29849 15.5124 2.32446C15.496 2.35138 15.394 2.45864 15.2065 2.64621C15.0189 2.83378 14.8352 3.00066 14.6554 3.14688C14.4746 3.29405 14.3832 3.47488 14.3813 3.68939C14.3784 3.90293 14.3673 4.14437 14.3481 4.41369C14.3288 4.68303 14.2928 4.97399 14.2399 5.28661C14.187 5.59923 14.1052 5.95273 13.9946 6.3471C13.884 6.74147 13.7493 7.12624 13.5906 7.50137C13.4319 7.87651 13.266 8.21317 13.0929 8.51136C12.9197 8.80955 12.761 9.06205 12.6168 9.26885C12.4725 9.47566 12.3258 9.67044 12.1767 9.8532C12.0277 10.036 11.8391 10.2418 11.6112 10.4707C11.3823 10.6987 11.2572 10.8238 11.2361 10.8459C11.214 10.867 11.1197 10.9459 10.9533 11.0825C10.7879 11.2201 10.6099 11.3576 10.4195 11.4952C10.23 11.6318 10.0559 11.7457 9.8972 11.8371C9.7385 11.9285 9.54711 12.0328 9.32299 12.1502C9.09986 12.2685 8.85843 12.3782 8.59874 12.4792C8.33904 12.5802 8.06492 12.674 7.77638 12.7605C7.48783 12.8471 7.2089 12.9144 6.93959 12.9625C6.67028 13.0106 6.3649 13.0515 6.02344 13.0852L5.51127 13.1357V13.1429H4.57349V13.1357L4.45086 13.1285C4.36911 13.1236 4.30178 13.1188 4.24887 13.114C4.19598 13.1092 3.99639 13.0828 3.65014 13.0347C3.30388 12.9866 3.03217 12.9385 2.83499 12.8904C2.63782 12.8423 2.34445 12.7509 1.95491 12.6162C1.56537 12.4816 1.2321 12.3455 0.955095 12.2079C0.679055 12.0713 0.505926 11.9848 0.435708 11.9482C0.366456 11.9126 0.288548 11.8684 0.201984 11.8155L0.0721371 11.7361L0.069266 11.7318L0.0649234 11.7289L0.0605951 11.726L0.0577096 11.7217L0.0432822 11.7145L0.0288548 11.7073L0.0259838 11.7029L0.0216411 11.7L0.0173129 11.6972L0.0144274 11.6928L0.0115564 11.6885L0.00721371 11.6856H0V11.6568L0.0144274 11.6596L0.0288548 11.664L0.0937782 11.6712C0.13706 11.676 0.254889 11.6832 0.44725 11.6928C0.639625 11.7025 0.844004 11.7025 1.06041 11.6928C1.27683 11.6832 1.49806 11.6616 1.72408 11.6279C1.95011 11.5942 2.21702 11.5365 2.5248 11.4548C2.83259 11.373 3.11537 11.2758 3.37314 11.1633C3.62995 11.0498 3.81269 10.9652 3.92139 10.9094C4.0291 10.8545 4.19357 10.7526 4.41479 10.6035L4.74662 10.3798L4.7495 10.3755L4.75383 10.3726L4.75817 10.3697L4.76105 10.3654L4.76393 10.3611L4.76826 10.3582L4.7726 10.3553L4.77547 10.351L4.7899 10.3467L4.80433 10.3438L4.80721 10.3293L4.81154 10.3149L4.81588 10.312L4.81876 10.3077L4.70334 10.3005C4.6264 10.2957 4.55185 10.2909 4.47971 10.2861C4.40757 10.2813 4.29456 10.2596 4.14067 10.2211C3.98678 10.1826 3.82087 10.1249 3.64292 10.048C3.46499 9.97104 3.29186 9.87965 3.12353 9.77385C2.95522 9.66805 2.83354 9.58002 2.75852 9.50981C2.68447 9.44054 2.58828 9.34244 2.46997 9.21547C2.35263 9.08755 2.25068 8.95623 2.16411 8.82157C2.07755 8.68691 1.99483 8.53155 1.91597 8.35554L1.79621 8.09294L1.789 8.0713L1.78179 8.04965L1.77746 8.03522L1.77457 8.0208L1.79621 8.02368L1.81785 8.02801L1.97656 8.04965C2.08237 8.06408 2.24828 8.06889 2.4743 8.06408C2.70034 8.05928 2.85663 8.04965 2.94319 8.03522C3.02976 8.0208 3.08266 8.01117 3.10189 8.00637L3.13075 7.99915L3.16682 7.99194L3.20289 7.98473L3.20577 7.9804L3.2101 7.97751L3.21444 7.97463L3.21731 7.9703L3.18846 7.96308L3.1596 7.95587L3.13075 7.94865L3.10189 7.94144L3.07304 7.93423C3.05381 7.92942 3.02015 7.9198 2.97205 7.90537C2.92396 7.89094 2.79411 7.83803 2.58251 7.74666C2.37091 7.65528 2.20259 7.5663 2.07755 7.47973C1.9522 7.39291 1.83267 7.29796 1.71975 7.19549C1.60721 7.09161 1.48363 6.9579 1.34896 6.79438C1.21431 6.63086 1.09409 6.44089 0.988278 6.22446C0.882482 6.00803 0.803131 5.80123 0.750225 5.60404C0.697533 5.408 0.662769 5.20759 0.646362 5.00526L0.620379 4.70226L0.634806 4.70515L0.649234 4.70948L0.663661 4.71669L0.678088 4.7239L0.692516 4.73112L0.706943 4.73833L0.930568 4.83933C1.07966 4.90667 1.26481 4.96438 1.48602 5.01247C1.70725 5.06056 1.8395 5.08702 1.88278 5.09183L1.9477 5.09904H2.07755L2.07468 5.09471L2.07033 5.09183L2.06601 5.08894L2.06312 5.08461L2.06025 5.08029L2.05591 5.0774L2.05158 5.07451L2.04869 5.07019L2.03427 5.06297L2.01984 5.05576L2.01697 5.05143L2.01262 5.04854L2.0083 5.04566L2.00541 5.04133L1.99098 5.03412L1.97656 5.0269L1.97368 5.02257C1.9708 5.02064 1.92944 4.98986 1.84959 4.93023C1.77072 4.86963 1.68801 4.79124 1.60144 4.69505C1.51488 4.59885 1.42831 4.49785 1.34175 4.39205C1.25503 4.28601 1.17778 4.17255 1.11091 4.05298C1.04359 3.93275 0.972408 3.7798 0.897385 3.59416C0.823329 3.40948 0.767062 3.22335 0.728584 3.03578C0.690121 2.84821 0.66848 2.66305 0.663661 2.48029C0.658857 2.29752 0.663661 2.14122 0.678088 2.01136C0.692516 1.88151 0.721371 1.73481 0.764653 1.5713C0.807935 1.40778 0.870463 1.23464 0.952209 1.05187L1.07484 0.777733L1.08206 0.756091L1.08927 0.734448L1.09361 0.731562L1.09648 0.727234L1.09937 0.722906L1.1037 0.72002L1.10804 0.722906L1.11091 0.727234L1.1138 0.731562L1.11812 0.734448L1.12247 0.737334L1.12534 0.741662L1.12822 0.745991L1.13255 0.748877L1.13977 0.763305L1.14698 0.777733L1.15132 0.780619L1.15419 0.784948L1.34896 1.00137C1.47881 1.14566 1.63271 1.30678 1.81064 1.48473C1.98859 1.66267 2.08717 1.75501 2.1064 1.76175C2.12565 1.76944 2.14968 1.79156 2.17854 1.82812C2.20739 1.86372 2.30358 1.94884 2.46709 2.0835C2.63061 2.21817 2.84461 2.37448 3.10911 2.55243C3.37362 2.73037 3.66697 2.90592 3.98918 3.07907C4.3114 3.25221 4.65766 3.40851 5.02795 3.54799C5.39826 3.68747 5.65796 3.77884 5.80703 3.82213C5.95613 3.86541 6.211 3.92072 6.57169 3.98806C6.93237 4.05539 7.2041 4.09868 7.38684 4.11791C7.56959 4.13714 7.69463 4.14821 7.76195 4.1511L7.86294 4.15398L7.86007 4.13234L7.85573 4.1107L7.82687 3.93034C7.80764 3.81011 7.79802 3.64177 7.79802 3.42535C7.79802 3.20892 7.81485 3.00933 7.84851 2.82657C7.88219 2.6438 7.93268 2.45864 8 2.27107C8.06733 2.0835 8.13322 1.93296 8.19766 1.81946C8.26307 1.70692 8.34867 1.57851 8.45446 1.43423C8.56027 1.28994 8.69733 1.14085 8.86564 0.986945C9.03397 0.833038 9.22633 0.695968 9.44274 0.575736C9.65915 0.455504 9.85874 0.364114 10.0415 0.301596C10.2242 0.239078 10.3781 0.198187 10.5032 0.178954C10.6282 0.159721 10.6907 0.148655 10.6907 0.145769Z" fill="#E2F1FF" fill-opacity="0.3"/>
</svg>
