<svg width="237" height="15" viewBox="0 0 237 15" fill="none" xmlns="http://www.w3.org/2000/svg">
<path fill-rule="evenodd" clip-rule="evenodd" d="M200.076 0.223633C200.745 0.223633 201.287 0.763976 201.287 1.43052V6.01671H209.042V1.43052C209.042 0.763976 209.585 0.223633 210.254 0.223633C210.923 0.223633 211.466 0.763976 211.466 1.43052V13.0167C211.466 13.6832 210.923 14.2236 210.254 14.2236C209.585 14.2236 209.042 13.6832 209.042 13.0167V8.43049H201.287V13.0167C201.287 13.6832 200.745 14.2236 200.076 14.2236C199.407 14.2236 198.864 13.6832 198.864 13.0167V1.43052C198.864 0.763976 199.407 0.223633 200.076 0.223633ZM224.795 3.36172C224.125 3.36172 223.583 2.82138 223.583 2.15483C223.583 1.48828 224.125 0.947939 224.795 0.947939H234.973C235.642 0.947939 236.185 1.48828 236.185 2.15483C236.185 2.82138 235.642 3.36172 234.973 3.36172H224.795ZM93.2263 1.18858C93.8955 1.18858 94.438 1.72893 94.438 2.39547V10.9047L104.593 10.9046C105.262 10.9046 105.804 11.445 105.804 12.1115C105.804 12.778 105.262 13.3184 104.593 13.3184L93.2263 13.3185C92.9049 13.3185 92.5967 13.1914 92.3695 12.965C92.1422 12.7387 92.0146 12.4317 92.0146 12.1116V2.39547C92.0146 1.72893 92.5571 1.18858 93.2263 1.18858ZM29.7846 1.64745C30.3334 1.26606 31.0888 1.40004 31.4717 1.94669L37.7481 10.9072L44.0246 1.94669C44.4075 1.40004 45.1628 1.26606 45.7117 1.64745C46.2605 2.02884 46.395 2.78116 46.0121 3.32781L38.7419 13.7071C38.5153 14.0306 38.1442 14.2234 37.7481 14.2234C37.3521 14.2234 36.981 14.0306 36.7544 13.7071L29.4842 3.32781C29.1012 2.78116 29.2358 2.02883 29.7846 1.64745ZM147.727 1.53289C148.167 1.34004 148.679 1.424 149.034 1.74693L158.394 10.2767V2.63738C158.394 1.97083 158.937 1.43049 159.606 1.43049C160.275 1.43049 160.818 1.97083 160.818 2.63738V13.0166C160.818 13.495 160.534 13.9283 160.094 14.1211C159.655 14.314 159.142 14.23 158.788 13.9071L149.427 5.37733V13.0166C149.427 13.6832 148.885 14.2235 148.216 14.2235C147.547 14.2235 147.004 13.6832 147.004 13.0166V2.63738C147.004 2.15898 147.288 1.72573 147.727 1.53289ZM8.66661 1.43049C9.06268 1.43049 9.43374 1.62328 9.66036 1.94682L16.9306 12.3261C17.3135 12.8727 17.179 13.6251 16.6302 14.0064C16.0813 14.3878 15.326 14.2539 14.9431 13.7072L8.66661 4.74666L2.39013 13.7072C2.00722 14.2539 1.2519 14.3878 0.703066 14.0064C0.154232 13.6251 0.0197217 12.8727 0.402629 12.3261L7.67286 1.94682C7.89948 1.62328 8.27055 1.43049 8.66661 1.43049ZM66.8286 1.43049C67.2247 1.43049 67.5957 1.62328 67.8224 1.94682L75.0926 12.3261C75.4755 12.8727 75.341 13.6251 74.7922 14.0064C74.2433 14.3878 73.488 14.2539 73.1051 13.7072L66.8286 4.74665L60.5521 13.7072C60.1692 14.2539 59.4139 14.3878 58.8651 14.0064C58.3162 13.6251 58.1817 12.8727 58.5646 12.3261L65.8349 1.94682C66.0615 1.62328 66.4325 1.43049 66.8286 1.43049ZM126.404 1.43049C126.8 1.43049 127.171 1.62328 127.398 1.94682L134.668 12.3261C135.051 12.8727 134.916 13.6251 134.368 14.0064C133.819 14.3878 133.063 14.2539 132.681 13.7072L126.404 4.74665L120.128 13.7072C119.745 14.2539 118.989 14.3878 118.441 14.0064C117.892 13.6251 117.757 12.8727 118.14 12.3261L125.41 1.94682C125.637 1.62328 126.008 1.43049 126.404 1.43049ZM223.583 7.46515C223.583 6.7986 224.125 6.25826 224.795 6.25826H234.973C235.642 6.25826 236.185 6.7986 236.185 7.46515C236.185 8.1317 235.642 8.67204 234.973 8.67204H224.795C224.125 8.67204 223.583 8.1317 223.583 7.46515ZM224.795 13.9824C224.125 13.9824 223.583 13.442 223.583 12.7755C223.583 12.1089 224.125 11.5686 224.795 11.5686H234.973C235.642 11.5686 236.185 12.1089 236.185 12.7755C236.185 13.442 235.642 13.9824 234.973 13.9824H224.795Z" fill="#BBC7D3"/>
<path d="M186.73 1.87438C186.842 1.21728 186.397 0.593784 185.738 0.481941L185.737 0.481749L185.734 0.481235L185.724 0.479704L185.694 0.474746C185.668 0.470642 185.631 0.464997 185.585 0.458163C185.493 0.444499 185.36 0.426055 185.194 0.405664C184.862 0.364926 184.391 0.316164 183.829 0.282369C182.711 0.215248 181.191 0.204833 179.649 0.44991C178.123 0.692499 176.46 1.2031 175.157 2.26573C173.802 3.37157 172.934 4.99975 172.934 7.22357C172.934 9.44739 173.802 11.0756 175.157 12.1814C176.46 13.244 178.123 13.7546 179.649 13.9972C181.191 14.2423 182.711 14.2319 183.829 14.1648C184.391 14.131 184.862 14.0822 185.194 14.0415C185.36 14.0211 185.493 14.0026 185.585 13.989C185.631 13.9821 185.668 13.9765 185.694 13.9724L185.724 13.9674L185.734 13.9659L185.737 13.9654L185.739 13.965C186.398 13.8532 186.842 13.2299 186.73 12.5728C186.618 11.9159 185.992 11.474 185.332 11.5855L185.33 11.5858L185.312 11.5888L185.286 11.5928C185.271 11.5951 185.252 11.598 185.23 11.6013C185.155 11.6122 185.043 11.628 184.898 11.6458C184.607 11.6814 184.188 11.725 183.683 11.7554C182.665 11.8165 181.337 11.8211 180.031 11.6136C178.71 11.4036 177.526 10.9939 176.693 10.3141C175.913 9.67752 175.357 8.74108 175.357 7.22357C175.357 5.70606 175.913 4.76961 176.693 4.13301C177.526 3.45319 178.71 3.04353 180.031 2.83353C181.337 2.62602 182.665 2.63068 183.683 2.69178C184.188 2.72209 184.607 2.76573 184.898 2.80136C185.043 2.81916 185.155 2.83489 185.23 2.84586C185.267 2.85134 185.294 2.85562 185.312 2.85837L185.33 2.86129L185.333 2.86179C185.992 2.97313 186.618 2.53121 186.73 1.87438Z" fill="#BBC7D3"/>
</svg>
