<svg width="109" height="29" viewBox="0 0 109 29" fill="none" xmlns="http://www.w3.org/2000/svg">
<g clip-path="url(#clip0_117_382)">
<path d="M2.65632 11.3357L2.63466 17.8609L2.63366 17.8827L2.63416 17.9044V17.96H2.63567C2.66387 22.0876 6.02136 25.4438 10.1579 25.4574C12.7112 25.466 14.9763 24.1987 16.3496 22.2575L16.3909 22.1983V25.7395C14.6146 27.1499 12.4146 27.9143 10.1499 27.9082C4.63546 27.8895 0.165019 23.3883 0.183652 17.8746C0.191709 15.397 1.10725 13.1318 2.61099 11.3888L2.65632 11.3357ZM10.2173 7.90824C15.7312 7.92695 20.2022 12.4276 20.1835 17.9418C20.1835 17.9893 20.182 18.0369 20.1805 18.0839L20.1755 18.2254H20.1825L20.1533 26.9194H17.7164L17.7315 18.0348H17.73L17.733 17.9337C17.7471 13.7708 14.372 10.3727 10.2093 10.3585C9.39233 10.3556 8.58035 10.486 7.8051 10.7447L7.73661 10.768V8.21156C8.54782 8.00773 9.38111 7.90584 10.2173 7.90824Z" fill="#BBC7D3"/>
<path d="M4.18359 0.908203L6.53957 0.916285L6.53666 12.812L6.86228 12.5726C7.8794 11.8735 9.07559 11.5159 10.3349 11.5401C11.1214 11.5576 11.8968 11.7363 12.6169 12.066C13.337 12.3957 13.9876 12.8699 14.5315 13.4615C15.0753 14.0464 15.5013 14.7385 15.7847 15.4971C16.068 16.2557 16.2029 17.0656 16.1814 17.8792C16.1629 18.6931 15.9886 19.4949 15.6687 20.2378C15.3487 20.9807 14.8895 21.6496 14.3179 22.2054C13.1965 23.3081 11.7096 23.918 10.167 23.9081L10.0325 23.9066C6.80744 23.8222 4.23503 21.1164 4.18602 17.8211L4.18505 17.7211H4.18359V0.908203ZM10.1936 13.948C9.25189 13.942 8.34421 14.3143 7.65957 14.9875C7.31053 15.3268 7.03008 15.7352 6.83467 16.1889C6.63927 16.6425 6.53283 17.1321 6.52162 17.6291C6.47115 19.7092 8.07254 21.4452 10.0917 21.4972C10.5719 21.5122 11.0502 21.4282 11.4991 21.25C11.948 21.0719 12.3586 20.8032 12.7073 20.4592C13.0563 20.12 13.3368 19.7116 13.5322 19.2581C13.7276 18.8045 13.834 18.315 13.8453 17.8181C13.8584 17.3214 13.776 16.827 13.603 16.3639C13.43 15.9008 13.1699 15.4783 12.8379 15.1213C12.5057 14.7603 12.1085 14.471 11.6688 14.2699C11.2292 14.0688 10.7558 13.9599 10.2757 13.9495C10.2485 13.9485 10.2213 13.948 10.1936 13.948Z" fill="#BBC7D3"/>
<path d="M31.9476 7.4682V6.9042H33.3036C33.5836 6.9042 33.8356 6.8562 34.0596 6.7602C34.2836 6.6642 34.4596 6.5242 34.5876 6.3402C34.7156 6.1562 34.7796 5.9322 34.7796 5.6682C34.7796 5.2682 34.6396 4.9602 34.3596 4.7442C34.0796 4.5202 33.7276 4.4082 33.3036 4.4082H32.1636V11.0082H33.4236C33.7836 11.0082 34.0996 10.9442 34.3716 10.8162C34.6516 10.6882 34.8676 10.5042 35.0196 10.2642C35.1796 10.0242 35.2596 9.7322 35.2596 9.3882C35.2596 9.1322 35.2156 8.9042 35.1276 8.7042C35.0396 8.5042 34.9116 8.3362 34.7436 8.2002C34.5836 8.0642 34.3916 7.9642 34.1676 7.9002C33.9436 7.8282 33.6956 7.7922 33.4236 7.7922H31.9476V7.2282H33.4236C33.8316 7.2282 34.2076 7.2722 34.5516 7.3602C34.8956 7.4482 35.1956 7.5842 35.4516 7.7682C35.7156 7.9442 35.9196 8.1722 36.0636 8.4522C36.2076 8.7322 36.2796 9.0642 36.2796 9.4482C36.2796 10.0002 36.1516 10.4602 35.8956 10.8282C35.6476 11.1882 35.3076 11.4602 34.8756 11.6442C34.4516 11.8202 33.9676 11.9082 33.4236 11.9082H31.1436V3.5082H33.3036C33.8076 3.5082 34.2436 3.5842 34.6116 3.7362C34.9876 3.8882 35.2796 4.1202 35.4876 4.4322C35.6956 4.7362 35.7996 5.1282 35.7996 5.6082C35.7996 6.0002 35.6956 6.3362 35.4876 6.6162C35.2796 6.8962 34.9876 7.1082 34.6116 7.2522C34.2436 7.3962 33.8076 7.4682 33.3036 7.4682H31.9476ZM38.735 6.3882V11.9082H37.775V6.3882H38.735ZM40.403 7.4442C40.275 7.3482 40.159 7.2802 40.055 7.2402C39.951 7.1922 39.819 7.1682 39.659 7.1682C39.419 7.1682 39.231 7.2282 39.095 7.3482C38.959 7.4682 38.863 7.6322 38.807 7.8402C38.759 8.0482 38.735 8.2842 38.735 8.5482H38.303C38.303 8.1082 38.379 7.7202 38.531 7.3842C38.691 7.0402 38.895 6.7682 39.143 6.5682C39.391 6.3682 39.643 6.2682 39.899 6.2682C40.099 6.2682 40.283 6.2962 40.451 6.3522C40.627 6.4002 40.787 6.5002 40.931 6.6522L40.403 7.4442ZM42.3203 10.2042C42.3203 10.4122 42.3683 10.5922 42.4643 10.7442C42.5683 10.8962 42.7083 11.0122 42.8843 11.0922C43.0683 11.1642 43.2763 11.2002 43.5083 11.2002C43.8043 11.2002 44.0683 11.1402 44.3003 11.0202C44.5403 10.9002 44.7283 10.7322 44.8643 10.5162C45.0083 10.2922 45.0803 10.0362 45.0803 9.7482L45.2723 10.4682C45.2723 10.8202 45.1643 11.1122 44.9483 11.3442C44.7403 11.5762 44.4803 11.7482 44.1683 11.8602C43.8643 11.9722 43.5603 12.0282 43.2563 12.0282C42.9203 12.0282 42.6043 11.9602 42.3083 11.8242C42.0203 11.6802 41.7883 11.4762 41.6123 11.2122C41.4363 10.9482 41.3483 10.6282 41.3483 10.2522C41.3483 9.7162 41.5363 9.2882 41.9123 8.9682C42.2963 8.6402 42.8283 8.4762 43.5083 8.4762C43.9083 8.4762 44.2403 8.5242 44.5043 8.6202C44.7763 8.7082 44.9923 8.8122 45.1523 8.9322C45.3123 9.0442 45.4203 9.1362 45.4763 9.2082V9.7722C45.1963 9.5802 44.9083 9.4442 44.6123 9.3642C44.3163 9.2762 44.0003 9.2322 43.6643 9.2322C43.3523 9.2322 43.0963 9.2722 42.8963 9.3522C42.7043 9.4322 42.5603 9.5442 42.4643 9.6882C42.3683 9.8322 42.3203 10.0042 42.3203 10.2042ZM42.1763 7.6602L41.7083 6.9522C41.9163 6.8002 42.2003 6.6482 42.5603 6.4962C42.9283 6.3442 43.3683 6.2682 43.8803 6.2682C44.3123 6.2682 44.6883 6.3362 45.0083 6.4722C45.3363 6.6002 45.5883 6.7882 45.7643 7.0362C45.9483 7.2842 46.0403 7.5882 46.0403 7.9482V11.9082H45.0803V8.0802C45.0803 7.8882 45.0483 7.7322 44.9843 7.6122C44.9203 7.4842 44.8283 7.3842 44.7083 7.3122C44.5963 7.2402 44.4643 7.1882 44.3123 7.1562C44.1603 7.1242 44.0003 7.1082 43.8323 7.1082C43.5603 7.1082 43.3123 7.1402 43.0883 7.2042C42.8723 7.2682 42.6883 7.3442 42.5363 7.4322C42.3843 7.5202 42.2643 7.5962 42.1763 7.6602ZM51.2056 8.5482C51.2056 8.0922 51.1056 7.7482 50.9056 7.5162C50.7056 7.2842 50.4136 7.1682 50.0296 7.1682C49.7496 7.1682 49.5016 7.2282 49.2856 7.3482C49.0776 7.4602 48.9136 7.6202 48.7936 7.8282C48.6816 8.0362 48.6256 8.2762 48.6256 8.5482V11.9082H47.6656V6.3882H48.6256V7.2522C48.8096 6.9162 49.0376 6.6682 49.3096 6.5082C49.5896 6.3482 49.9096 6.2682 50.2696 6.2682C50.8536 6.2682 51.3136 6.4642 51.6496 6.8562C51.9936 7.2402 52.1656 7.7642 52.1656 8.4282V11.9082H51.2056V8.5482ZM58.1103 2.5482H59.0703V11.9082H58.1103V2.5482ZM53.4903 9.1482C53.4903 8.5482 53.6143 8.0362 53.8623 7.6122C54.1103 7.1802 54.4423 6.8482 54.8583 6.6162C55.2743 6.3842 55.7303 6.2682 56.2263 6.2682C56.6903 6.2682 57.0943 6.3842 57.4383 6.6162C57.7823 6.8482 58.0503 7.1802 58.2423 7.6122C58.4423 8.0362 58.5423 8.5482 58.5423 9.1482C58.5423 9.7402 58.4423 10.2522 58.2423 10.6842C58.0503 11.1162 57.7823 11.4482 57.4383 11.6802C57.0943 11.9122 56.6903 12.0282 56.2263 12.0282C55.7303 12.0282 55.2743 11.9122 54.8583 11.6802C54.4423 11.4482 54.1103 11.1162 53.8623 10.6842C53.6143 10.2522 53.4903 9.7402 53.4903 9.1482ZM54.4623 9.1482C54.4623 9.5722 54.5463 9.9322 54.7143 10.2282C54.8903 10.5242 55.1223 10.7482 55.4103 10.9002C55.6983 11.0522 56.0103 11.1282 56.3463 11.1282C56.6263 11.1282 56.9023 11.0522 57.1743 10.9002C57.4463 10.7482 57.6703 10.5242 57.8463 10.2282C58.0223 9.9322 58.1103 9.5722 58.1103 9.1482C58.1103 8.7242 58.0223 8.3642 57.8463 8.0682C57.6703 7.7722 57.4463 7.5482 57.1743 7.3962C56.9023 7.2442 56.6263 7.1682 56.3463 7.1682C56.0103 7.1682 55.6983 7.2442 55.4103 7.3962C55.1223 7.5482 54.8903 7.7722 54.7143 8.0682C54.5463 8.3642 54.4623 8.7242 54.4623 9.1482ZM31.9476 23.3882L32.3076 22.4282H36.0276L36.3876 23.3882H31.9476ZM34.1436 19.4042L32.7276 22.7402L32.6316 22.9562L31.3836 25.9082H30.2436L34.1436 17.0882L38.0436 25.9082H36.9036L35.6796 23.0282L35.5836 22.7882L34.1436 19.4042ZM42.5455 22.5482C42.5455 22.0922 42.4455 21.7482 42.2455 21.5162C42.0455 21.2842 41.7535 21.1682 41.3695 21.1682C41.0895 21.1682 40.8415 21.2282 40.6255 21.3482C40.4175 21.4602 40.2535 21.6202 40.1335 21.8282C40.0215 22.0362 39.9655 22.2762 39.9655 22.5482V25.9082H39.0055V20.3882H39.9655V21.2522C40.1495 20.9162 40.3775 20.6682 40.6495 20.5082C40.9295 20.3482 41.2495 20.2682 41.6095 20.2682C42.1935 20.2682 42.6535 20.4642 42.9895 20.8562C43.3335 21.2402 43.5055 21.7642 43.5055 22.4282V25.9082H42.5455V22.5482ZM45.7422 24.2042C45.7422 24.4122 45.7902 24.5922 45.8862 24.7442C45.9902 24.8962 46.1302 25.0122 46.3062 25.0922C46.4902 25.1642 46.6982 25.2002 46.9302 25.2002C47.2262 25.2002 47.4902 25.1402 47.7222 25.0202C47.9622 24.9002 48.1502 24.7322 48.2862 24.5162C48.4302 24.2922 48.5022 24.0362 48.5022 23.7482L48.6942 24.4682C48.6942 24.8202 48.5862 25.1122 48.3702 25.3442C48.1622 25.5762 47.9022 25.7482 47.5902 25.8602C47.2862 25.9722 46.9822 26.0282 46.6782 26.0282C46.3422 26.0282 46.0262 25.9602 45.7302 25.8242C45.4422 25.6802 45.2102 25.4762 45.0342 25.2122C44.8582 24.9482 44.7702 24.6282 44.7702 24.2522C44.7702 23.7162 44.9582 23.2882 45.3342 22.9682C45.7182 22.6402 46.2502 22.4762 46.9302 22.4762C47.3302 22.4762 47.6622 22.5242 47.9262 22.6202C48.1982 22.7082 48.4142 22.8122 48.5742 22.9322C48.7342 23.0442 48.8422 23.1362 48.8982 23.2082V23.7722C48.6182 23.5802 48.3302 23.4442 48.0342 23.3642C47.7382 23.2762 47.4222 23.2322 47.0862 23.2322C46.7742 23.2322 46.5182 23.2722 46.3182 23.3522C46.1262 23.4322 45.9822 23.5442 45.8862 23.6882C45.7902 23.8322 45.7422 24.0042 45.7422 24.2042ZM45.5982 21.6602L45.1302 20.9522C45.3382 20.8002 45.6222 20.6482 45.9822 20.4962C46.3502 20.3442 46.7902 20.2682 47.3022 20.2682C47.7342 20.2682 48.1102 20.3362 48.4302 20.4722C48.7582 20.6002 49.0102 20.7882 49.1862 21.0362C49.3702 21.2842 49.4622 21.5882 49.4622 21.9482V25.9082H48.5022V22.0802C48.5022 21.8882 48.4702 21.7322 48.4062 21.6122C48.3422 21.4842 48.2502 21.3842 48.1302 21.3122C48.0182 21.2402 47.8862 21.1882 47.7342 21.1562C47.5822 21.1242 47.4222 21.1082 47.2542 21.1082C46.9822 21.1082 46.7342 21.1402 46.5102 21.2042C46.2942 21.2682 46.1102 21.3442 45.9582 21.4322C45.8062 21.5202 45.6862 21.5962 45.5982 21.6602ZM51.0875 16.5482H52.0475V25.9082H51.0875V16.5482ZM58.2331 20.3882L54.6331 28.5482H53.5531L55.0651 25.1282L52.9531 20.3882H54.0931L55.8451 24.7082L55.4491 24.6602L57.1531 20.3882H58.2331ZM58.2983 20.3882H61.0583V21.2882H58.2983V20.3882ZM59.1983 18.4682H60.1583V25.9082H59.1983V18.4682ZM62.0211 18.1082C62.0211 17.9242 62.0851 17.7682 62.2131 17.6402C62.3491 17.5122 62.5051 17.4482 62.6811 17.4482C62.8651 17.4482 63.0211 17.5122 63.1491 17.6402C63.2771 17.7682 63.3411 17.9242 63.3411 18.1082C63.3411 18.2842 63.2771 18.4402 63.1491 18.5762C63.0211 18.7042 62.8651 18.7682 62.6811 18.7682C62.5051 18.7682 62.3491 18.7042 62.2131 18.5762C62.0851 18.4402 62.0211 18.2842 62.0211 18.1082ZM62.2011 20.3882H63.1611V25.9082H62.2011V20.3882ZM65.5703 23.1482C65.5703 23.5322 65.6503 23.8722 65.8103 24.1682C65.9783 24.4642 66.2023 24.7002 66.4823 24.8762C66.7703 25.0442 67.0943 25.1282 67.4543 25.1282C67.7503 25.1282 68.0263 25.0842 68.2823 24.9962C68.5463 24.9002 68.7743 24.7762 68.9663 24.6242C69.1583 24.4642 69.2943 24.2962 69.3743 24.1202V25.3202C69.1823 25.5442 68.9063 25.7202 68.5463 25.8482C68.1943 25.9682 67.8303 26.0282 67.4543 26.0282C66.9183 26.0282 66.4343 25.9042 66.0023 25.6562C65.5703 25.4082 65.2263 25.0682 64.9703 24.6362C64.7223 24.1962 64.5983 23.7002 64.5983 23.1482C64.5983 22.5882 64.7223 22.0922 64.9703 21.6602C65.2263 21.2282 65.5703 20.8882 66.0023 20.6402C66.4343 20.3922 66.9183 20.2682 67.4543 20.2682C67.8303 20.2682 68.1943 20.3322 68.5463 20.4602C68.9063 20.5802 69.1823 20.7522 69.3743 20.9762V22.1762C69.2943 21.9922 69.1583 21.8242 68.9663 21.6722C68.7743 21.5202 68.5463 21.4002 68.2823 21.3122C68.0263 21.2162 67.7503 21.1682 67.4543 21.1682C67.0943 21.1682 66.7703 21.2522 66.4823 21.4202C66.2023 21.5882 65.9783 21.8242 65.8103 22.1282C65.6503 22.4242 65.5703 22.7642 65.5703 23.1482ZM71.0968 24.2162C71.2088 24.3842 71.3368 24.5402 71.4808 24.6842C71.6248 24.8282 71.7888 24.9442 71.9728 25.0322C72.1648 25.1122 72.3728 25.1522 72.5968 25.1522C72.8688 25.1522 73.0808 25.0922 73.2328 24.9722C73.3928 24.8442 73.4728 24.6722 73.4728 24.4562C73.4728 24.2642 73.4088 24.1042 73.2808 23.9762C73.1608 23.8402 73.0048 23.7282 72.8128 23.6402C72.6208 23.5442 72.4168 23.4562 72.2008 23.3762C71.9608 23.2802 71.7168 23.1682 71.4688 23.0402C71.2288 22.9042 71.0248 22.7322 70.8568 22.5242C70.6968 22.3082 70.6168 22.0402 70.6168 21.7202C70.6168 21.3922 70.7008 21.1202 70.8688 20.9042C71.0448 20.6882 71.2688 20.5282 71.5408 20.4242C71.8208 20.3202 72.1088 20.2682 72.4048 20.2682C72.7008 20.2682 72.9768 20.3162 73.2328 20.4122C73.4968 20.5082 73.7288 20.6362 73.9288 20.7962C74.1288 20.9562 74.2848 21.1402 74.3968 21.3482L73.6288 21.8402C73.4768 21.6322 73.2848 21.4602 73.0527 21.3242C72.8288 21.1882 72.5728 21.1202 72.2848 21.1202C72.0848 21.1202 71.9128 21.1642 71.7688 21.2522C71.6248 21.3402 71.5527 21.4762 71.5527 21.6602C71.5527 21.8042 71.6088 21.9322 71.7208 22.0442C71.8328 22.1562 71.9768 22.2562 72.1528 22.3442C72.3288 22.4322 72.5128 22.5162 72.7048 22.5962C73.0248 22.7242 73.3168 22.8642 73.5808 23.0162C73.8448 23.1602 74.0528 23.3362 74.2048 23.5442C74.3648 23.7522 74.4448 24.0202 74.4448 24.3482C74.4448 24.8282 74.2688 25.2282 73.9168 25.5482C73.5728 25.8682 73.1168 26.0282 72.5488 26.0282C72.1808 26.0282 71.8488 25.9642 71.5527 25.8362C71.2568 25.7002 71.0048 25.5282 70.7968 25.3202C70.5968 25.1122 70.4448 24.9002 70.3408 24.6842L71.0968 24.2162Z" fill="#BBC7D3"/>
</g>
<defs>
<clipPath id="clip0_117_382">
<rect width="108" height="28" fill="white" transform="translate(0.183594 0.908203)"/>
</clipPath>
</defs>
</svg>
