<svg width="109" height="28" viewBox="0 0 109 28" fill="none" xmlns="http://www.w3.org/2000/svg">
<path d="M16.0072 5.01438C13.9424 5.66806 10.7959 11.1489 9.17355 10.5455C7.55116 9.94209 11.8283 1.74601 14.5323 0.790641C17.1871 -0.265297 25.594 3.15393 24.7583 4.71268C23.9225 6.27145 18.0229 4.15957 16.0072 5.01438Z" fill="#BBC7D3"/>
<path d="M7.5596 10.0737C7.45302 12.2469 11.7163 17.0873 10.4373 18.4208C9.15835 19.7544 2.76344 12.9384 2.81674 10.0243C2.76344 7.15962 9.3715 0.393008 10.5972 1.77597C11.8229 3.15892 7.50633 7.90049 7.5596 10.0737Z" fill="#E2F1FF"/>
<path d="M24.1483 12.2987C22.8846 10.5341 16.6675 9.06369 16.8191 7.29915C16.9708 5.53461 26.069 7.34817 27.7876 9.70089C29.6073 11.9556 28.7985 20.9253 27.0294 20.5822C25.2603 20.2391 25.5636 13.9652 24.1483 12.2987Z" fill="#E2F1FF"/>
<path d="M19.1762 21.9123C20.5875 20.231 20.3355 13.9999 22.0995 13.6043C23.8636 13.2087 24.5692 22.308 22.7548 24.5828C20.9907 26.9071 11.9184 28.6379 11.8176 26.8576C11.7168 25.0773 17.9162 23.6926 19.1762 21.9123Z" fill="#E2F1FF"/>
<path d="M8.55138 20.0374C10.6678 20.8134 16.7588 18.3304 17.7395 19.934C18.7203 21.5376 10.0483 25.4173 7.2093 24.4345C4.31865 23.5551 -0.533502 15.3818 1.16991 14.6576C2.87333 13.9333 6.33179 19.4167 8.55138 20.0374Z" fill="#E2F1FF"/>
<path d="M43.6224 17.5918L40.6447 13.6713V17.5918H38.8164V9.5918H40.6447V13.2474C41.2716 12.5057 43.6224 9.5918 43.6224 9.5918H45.8164L42.5776 13.4593L45.8164 17.5918H43.6224Z" fill="#BBC7D3"/>
<path d="M48.8164 17.5918V9.5918H52.8164C54.2926 9.5918 54.8164 10.7574 54.8164 12.3997C54.8164 13.8302 54.1973 15.1017 52.8642 15.1017H50.4831V17.5918H48.8164ZM52.2926 13.5653C52.7211 13.5653 53.007 13.2474 53.007 12.3997C53.007 11.5521 52.769 11.1812 52.2926 11.1812H50.4831V13.5653H52.2926Z" fill="#E2F1FF"/>
<path d="M64.8164 17.5918H63.0793V12.2938C62.1597 14.0951 61.1887 15.8964 60.1668 17.5918H57.8164V9.5918H59.5539V15.1017C60.6267 13.3004 61.6999 11.4461 62.6195 9.5918H64.8164V17.5918Z" fill="#E2F1FF"/>
<path d="M74.2448 11.1812H70.4353V12.6646H72.8638C74.102 12.6646 74.8164 13.5123 74.8164 15.1547C74.8164 17.062 74.102 17.5918 72.9117 17.5918H68.8164V9.5918H74.2448V11.1812ZM72.4353 16.0024C72.7686 16.0024 72.9591 15.7375 72.9591 15.1017C72.9591 14.466 72.7686 14.1481 72.3879 14.1481H70.4353V16.0024H72.4353Z" fill="#E2F1FF"/>
<path d="M79.8164 17.5918V9.5918H83.8642C85.3404 9.5918 85.8164 10.7574 85.8164 12.3997C85.8164 13.8302 85.1973 15.1017 83.8642 15.1017H81.4831V17.5918H79.8164ZM83.2926 13.5653C83.7211 13.5653 84.007 13.2474 84.007 12.3997C84.007 11.5521 83.769 11.1812 83.2926 11.1812H81.4831V13.5653H83.2926Z" fill="#E2F1FF"/>
<path d="M92.877 9.5918H94.8164C93.823 12.3468 92.6407 15.0488 91.2691 17.5918H89.188C89.6136 16.9031 90.0393 16.2143 90.3703 15.5256C89.6607 13.4593 88.8095 11.4991 87.8164 9.5918H89.8029C90.4178 10.8633 90.9381 12.1348 91.4108 13.5123C91.9311 12.2408 92.4043 10.9163 92.877 9.5918Z" fill="#E2F1FF"/>
<path d="M104.42 9.5918H106.816V17.5918H105.006V12.1878C104.42 13.5123 103.568 15.5786 103.035 16.956H101.544C101.012 15.6315 100.266 13.5123 99.68 12.1878V17.5918H97.8164V9.5918H100.319C101.012 10.9163 101.811 12.7706 102.396 14.307C102.982 12.7706 103.781 10.9163 104.42 9.5918Z" fill="#E2F1FF"/>
<path d="M42.0386 20.5918H42.8164V24.5918H42.2608V21.3242C41.8164 22.2256 41.4275 23.296 41.0386 24.1974H40.5942C40.2053 23.296 39.8164 22.2256 39.372 21.3242V24.5918H38.8164V20.5918H39.6497C40.0942 21.4932 40.4831 22.451 40.872 23.4087C41.2053 22.451 41.5942 21.4932 42.0386 20.5918Z" fill="#E2F1FF"/>
<path d="M45.2666 22.7456C45.6663 22.688 46.0162 22.9187 46.0664 23.3803C46.0664 23.4956 46.0664 23.5533 46.0664 23.6687C46.0664 24.361 45.8165 24.5918 45.2666 24.5918H43.8164V21.5918H44.3165V22.7456H45.2666ZM45.5165 23.6687C45.5165 23.3226 45.4164 23.2072 45.1666 23.2072H44.2667V24.1303H45.1666C45.4164 24.1303 45.5165 24.0149 45.5165 23.6687ZM46.8164 24.5918H46.3163V21.5918H46.8164V24.5918Z" fill="#E2F1FF"/>
<path d="M50.8164 24.4282C50.5665 24.5373 50.3162 24.5918 50.0663 24.5918C49.2664 24.5918 48.8164 24.2645 48.8164 23.0645C48.8164 21.8645 49.2664 21.5918 50.0663 21.5918C50.3162 21.5918 50.5665 21.6463 50.8164 21.7554L50.6661 22.2463C50.4665 22.1373 50.2664 22.1373 50.0663 22.1373C49.5163 22.1373 49.2664 22.3009 49.2664 23.1736C49.2664 24.0463 49.5163 24.21 50.0663 24.21C50.2664 24.21 50.4665 24.1554 50.6661 24.0463L50.8164 24.4282Z" fill="#E2F1FF"/>
<path d="M52.6611 22.111C52.6164 22.9764 52.4832 23.7841 52.2611 24.5918H51.8164C52.0832 23.611 52.2164 22.6303 52.2611 21.5918H53.8164V24.5918H53.3721V22.111H52.6611Z" fill="#E2F1FF"/>
<path d="M54.8164 21.5918H55.2244C55.4694 22.3696 55.6327 23.1474 55.7957 23.9807C56.0407 23.2029 56.2447 22.4251 56.4081 21.5918H56.8164C56.6124 22.5918 56.3264 23.5918 56.0407 24.5362C55.9184 24.8696 55.7957 25.2585 55.6734 25.5918H55.2244C55.3467 25.314 55.4694 24.9251 55.5511 24.6474C55.3877 23.5918 55.1427 22.5918 54.8164 21.5918Z" fill="#E2F1FF"/>
<path d="M61.759 24.5918H57.8164V21.5918H58.3876V24.0726H59.5304V21.5918H60.102V24.0726H61.2448V21.5918H61.8164L61.759 24.5918Z" fill="#E2F1FF"/>
<path d="M63.7711 24.3696C63.4529 24.5362 63.0891 24.5918 62.7709 24.5918C62.0436 24.5918 61.8164 24.3696 61.8164 23.6474C61.8164 22.9251 62.2255 22.7029 62.7256 22.7029C62.9528 22.7029 63.1348 22.7029 63.362 22.814C63.362 22.2029 63.2257 22.0918 62.7256 22.0918C62.498 22.0918 62.2708 22.1474 62.0436 22.2029L61.9527 21.7585C62.2255 21.6474 62.5437 21.6474 62.8166 21.5918C63.4982 21.5918 63.8164 21.8696 63.8164 22.7029L63.7711 24.3696ZM63.362 23.1474C63.1801 23.0918 62.9981 23.0918 62.8166 23.0918C62.4071 23.0918 62.2708 23.1474 62.2708 23.5918C62.2708 24.0362 62.3618 24.1474 62.8166 24.1474C62.9981 24.1474 63.1801 24.0918 63.362 24.0362V23.1474Z" fill="#E2F1FF"/>
<path d="M66.6857 24.4282C66.4251 24.5373 66.1642 24.5918 65.9032 24.5918C65.251 24.5918 64.8164 24.2645 64.8164 23.0645C64.8164 21.8645 65.1644 21.5918 65.8599 21.5918C66.5554 21.5918 66.8164 21.9191 66.8164 23.1736H65.2947C65.2947 23.9373 65.5119 24.1009 65.9469 24.1009C66.1642 24.1009 66.3815 24.0463 66.5991 23.9373L66.6857 24.4282ZM65.2947 22.7918H66.4251C66.3815 22.1918 66.2512 22.0827 65.9032 22.0827C65.5556 22.0827 65.338 22.1918 65.2947 22.7918Z" fill="#E2F1FF"/>
<path d="M70.1047 21.5918H70.8164V24.5918H70.3588V22.1687C70.0536 22.861 69.7489 23.7264 69.5454 24.361H69.1385C68.935 23.6687 68.6303 22.8033 68.3251 22.1687V24.5918H67.8164V21.5918H68.5792C68.8333 22.2264 69.0878 22.9187 69.3419 23.611C69.5961 22.9187 69.8502 22.2841 70.1047 21.5918Z" fill="#E2F1FF"/>
<path d="M75.8164 24.4282C75.5661 24.5373 75.3163 24.5918 75.0665 24.5918C74.2663 24.5918 73.8164 24.2645 73.8164 23.0645C73.8164 21.8645 74.2663 21.5918 75.0665 21.5918C75.3163 21.5918 75.5661 21.6463 75.8164 21.7554L75.6662 22.2463C75.4661 22.1373 75.2665 22.1373 75.0665 22.1373C74.5165 22.1373 74.2663 22.3009 74.2663 23.1736C74.2663 24.0463 74.5165 24.21 75.0665 24.21C75.2665 24.21 75.4661 24.1554 75.6662 24.0463L75.8164 24.4282Z" fill="#E2F1FF"/>
<path d="M77.6861 24.4282C77.4251 24.5373 77.1642 24.5918 76.9036 24.5918C76.2513 24.5918 75.8164 24.2645 75.8164 23.0645C75.8164 21.8645 76.2077 21.5918 76.8599 21.5918C77.5121 21.5918 77.8164 21.9191 77.8164 23.1736H76.2947C76.2947 23.9373 76.5119 24.1009 76.9469 24.1009C77.1642 24.1009 77.3818 24.0463 77.5991 23.9373L77.6861 24.4282ZM76.2947 22.7918H77.4251C77.3818 22.1918 77.2512 22.0827 76.9036 22.0827C76.5556 22.0827 76.3383 22.1918 76.2947 22.7918Z" fill="#E2F1FF"/>
<path d="M80.0246 24.5918H79.6082V22.111H78.8164V21.5918H80.8164V22.111H80.0246V24.5918Z" fill="#E2F1FF"/>
<path d="M83.1053 22.7456C83.4607 22.688 83.7721 22.9764 83.8164 23.438C83.8164 23.4956 83.8164 23.611 83.8164 23.6687C83.8164 24.361 83.5943 24.5918 83.1053 24.5918H81.8164V21.5918H82.2607V22.7456H83.1053ZM83.3721 23.6687C83.3721 23.3226 83.2832 23.2072 83.0607 23.2072H82.2607V24.1303H83.0607C83.2385 24.1303 83.3721 24.0149 83.3721 23.6687Z" fill="#E2F1FF"/>
</svg>
