<svg width="109" height="17" viewBox="0 0 109 17" fill="none" xmlns="http://www.w3.org/2000/svg">
<path d="M3.43193 12.5628L10.1904 1.77637H12.8164V16.7764H10.1904V5.97966L3.43193 16.7764H0.816406V1.77637H3.43193V12.5628Z" fill="#BBC7D3"/>
<path d="M21.8516 10.3716V12.3032H16.2826V10.3716H21.8516ZM16.9787 5.77637V16.7764H14.582V5.77637H16.9787ZM23.582 5.77637V16.7764H21.1853V5.77637H23.582Z" fill="#BBC7D3"/>
<path d="M31.595 5.77637V16.7764H29.0369V5.77637H31.595ZM35.3477 5.77637V7.70798H25.3477V5.77637H35.3477Z" fill="#BBC7D3"/>
<path d="M42.5697 16.7764C41.7303 16.7764 40.9713 16.6373 40.2927 16.3593C39.6212 16.074 39.0475 15.6783 38.5718 15.1721C38.1031 14.6658 37.7429 14.0705 37.491 13.386C37.2392 12.7015 37.1133 11.9635 37.1133 11.1721V10.7443C37.1133 9.83876 37.2427 9.01879 37.5015 8.28439C37.7604 7.54999 38.1206 6.92253 38.5823 6.40204C39.044 5.87441 39.5897 5.47155 40.2193 5.19348C40.8489 4.9154 41.5309 4.77637 42.2654 4.77637C43.0769 4.77637 43.7869 4.9154 44.3955 5.19348C45.0042 5.47155 45.5078 5.86371 45.9066 6.36995C46.3123 6.86906 46.6131 7.46442 46.809 8.15605C47.0118 8.84767 47.1133 9.61059 47.1133 10.4448V11.5464H38.341V9.69615H44.6159V9.49294C44.6019 9.02949 44.511 8.59455 44.3431 8.18813C44.1822 7.78171 43.9338 7.45373 43.5981 7.20417C43.2623 6.95462 42.8146 6.82984 42.2549 6.82984C41.8352 6.82984 41.461 6.92253 41.1322 7.10792C40.8104 7.28617 40.5411 7.54642 40.3242 7.88867C40.1073 8.23091 39.9394 8.64446 39.8205 9.12931C39.7086 9.60703 39.6526 10.1454 39.6526 10.7443V11.1721C39.6526 11.6783 39.7191 12.1489 39.852 12.5839C39.9919 13.0117 40.1948 13.386 40.4606 13.7068C40.7264 14.0277 41.0482 14.2808 41.426 14.4662C41.8037 14.6445 42.234 14.7336 42.7166 14.7336C43.3252 14.7336 43.8674 14.6088 44.3431 14.3593C44.8188 14.1097 45.2315 13.7568 45.5813 13.3004L46.9139 14.6159C46.6691 14.9796 46.3508 15.329 45.959 15.6641C45.5673 15.9921 45.0881 16.2594 44.5215 16.4662C43.9618 16.673 43.3113 16.7764 42.5697 16.7764Z" fill="#BBC7D3"/>
<path d="M55.877 5.77637V7.72831H51.243V16.7764H48.877V5.77637H55.877Z" fill="#BBC7D3"/>
<path d="M60.1901 3.17953V16.7764H57.6426V0.987171H59.9893L60.1901 3.17953ZM67.6426 6.58401V6.80535C67.6426 7.63451 67.5439 8.40395 67.3466 9.11365C67.1563 9.81633 66.8709 10.4312 66.4904 10.9582C66.1169 11.4782 65.6553 11.8822 65.1056 12.1703C64.5559 12.4584 63.9216 12.6025 63.2028 12.6025C62.4911 12.6025 61.8674 12.4725 61.3318 12.2125C60.8033 11.9454 60.3558 11.5695 59.9893 11.0847C59.6228 10.5998 59.3269 10.0306 59.1014 9.37716C58.8829 8.71664 58.7278 7.99288 58.6362 7.20588V6.35212C58.7278 5.51594 58.8829 4.75704 59.1014 4.07544C59.3269 3.39385 59.6228 2.80711 59.9893 2.31523C60.3558 1.82336 60.8033 1.44391 61.3318 1.17689C61.8603 0.909876 62.477 0.776367 63.1817 0.776367C63.9005 0.776367 64.5383 0.916903 65.095 1.19797C65.6517 1.47202 66.1204 1.86552 66.5009 2.37848C66.8815 2.8844 67.1669 3.49573 67.3572 4.21247C67.5474 4.92217 67.6426 5.71269 67.6426 6.58401ZM65.095 6.80535V6.58401C65.095 6.057 65.0457 5.56864 64.947 5.11892C64.8484 4.66218 64.6933 4.26165 64.4819 3.91734C64.2705 3.57303 63.9992 3.30601 63.6679 3.11629C63.3438 2.91954 62.9527 2.82116 62.4946 2.82116C62.0436 2.82116 61.656 2.89846 61.3318 3.05305C61.0076 3.20061 60.7363 3.4079 60.5178 3.67492C60.2994 3.94194 60.1302 4.25463 60.0104 4.61299C59.8906 4.96433 59.8061 5.34729 59.7567 5.76187V7.80667C59.8413 8.3126 59.9858 8.77637 60.1901 9.19797C60.3945 9.61958 60.6835 9.95687 61.057 10.2098C61.4375 10.4558 61.9238 10.5787 62.5157 10.5787C62.9738 10.5787 63.3649 10.4804 63.6891 10.2836C64.0133 10.0869 64.2775 9.81633 64.4819 9.47202C64.6933 9.12068 64.8484 8.71664 64.947 8.2599C65.0457 7.80316 65.095 7.31831 65.095 6.80535Z" fill="#BBC7D3"/>
<path d="M73.764 10.9304L76.7702 0.776367H79.4082L74.9706 13.9113C74.8683 14.1922 74.7354 14.4977 74.5718 14.8277C74.4082 15.1578 74.1935 15.4702 73.9276 15.7652C73.6686 16.0671 73.3448 16.3094 72.9563 16.492C72.5677 16.6816 72.0974 16.7764 71.5452 16.7764C71.3271 16.7764 71.1158 16.7553 70.9113 16.7132C70.7136 16.6781 70.5261 16.6394 70.3489 16.5973L70.3387 14.6592C70.4068 14.6662 70.4886 14.6732 70.5841 14.6803C70.6863 14.6873 70.7681 14.6908 70.8295 14.6908C71.2385 14.6908 71.5793 14.6381 71.852 14.5328C72.1246 14.4345 72.3462 14.273 72.5166 14.0483C72.6938 13.8235 72.8438 13.5216 72.9665 13.1424L73.764 10.9304ZM72.0667 0.776367L74.6945 9.3083L75.1342 11.9837L73.4266 12.4367L69.4082 0.776367H72.0667Z" fill="#BBC7D3"/>
<path d="M87.6686 13.8078L91.0201 5.77637H93.1954L88.5221 16.7764H86.8151L82.1522 5.77637H84.3276L87.6686 13.8078ZM83.6822 5.77637V16.7764H81.1738V5.77637H83.6822ZM91.655 16.7764V5.77637H94.1738V16.7764H91.655Z" fill="#BBC7D3"/>
</svg>
