<svg width="107" height="18" viewBox="0 0 107 18" fill="none" xmlns="http://www.w3.org/2000/svg">
<g clip-path="url(#clip0_117_447)">
<path fill-rule="evenodd" clip-rule="evenodd" d="M9.18347 9.27437L14.3712 12.1667L12.3084 13.6298C12.0678 13.8007 12.0126 14.132 12.1844 14.3701C12.3565 14.6088 12.692 14.6626 12.9309 14.493L15.6618 12.5562C15.7888 12.4661 15.8698 12.3258 15.8834 12.1714L16.1815 8.83653C16.2075 8.54431 15.9899 8.2871 15.6954 8.26135C15.4004 8.23631 15.1412 8.45122 15.1152 8.74323L14.8924 11.2399L9.72252 8.35765V2.95015L12.0126 3.99672C12.2808 4.11982 12.5988 4.00322 12.7227 3.73702C12.8464 3.47106 12.7293 3.15556 12.4605 3.03321L9.41135 1.63937C9.25513 1.57632 9.11357 1.57557 8.9556 1.63937L5.90644 3.03321C5.63793 3.15556 5.52057 3.47106 5.64446 3.73702C5.76812 4.00322 6.08638 4.11982 6.35439 3.99672L8.64442 2.95015V8.35765L3.4746 11.2399L3.25175 8.74323C3.22576 8.45122 2.96657 8.23631 2.67155 8.26135C2.37704 8.2871 2.15949 8.54431 2.18574 8.83653L2.48354 12.1714C2.49716 12.3258 2.57818 12.4661 2.70512 12.5562L5.43602 14.493C5.67499 14.6626 6.01066 14.6088 6.18253 14.3701C6.35439 14.132 6.29915 13.8007 6.05865 13.6298L3.99574 12.1667L9.18347 9.27437Z" fill="white"/>
<path fill-rule="evenodd" clip-rule="evenodd" d="M9.18359 9.69567V0.591797H3.22249C1.55091 0.591797 0.183594 1.93702 0.183594 3.58106V14.5918L9.18359 9.69567Z" fill="#E2F1FF"/>
<path fill-rule="evenodd" clip-rule="evenodd" d="M8.6836 0.591797V9.33269L0.183594 14.0336V14.7217C0.183594 16.3002 1.47495 17.5918 3.05367 17.5918H14.3135C15.892 17.5918 17.1836 16.3002 17.1836 14.7217V3.46212C17.1836 1.88339 15.892 0.591797 14.3135 0.591797H8.6836Z" fill="#BBC7D3"/>
<path fill-rule="evenodd" clip-rule="evenodd" d="M9.18347 9.27437L14.3712 12.1667L12.3084 13.6298C12.0678 13.8007 12.0126 14.132 12.1844 14.3701C12.3565 14.6088 12.692 14.6626 12.9309 14.493L15.6618 12.5562C15.7888 12.4661 15.8698 12.3258 15.8834 12.1714L16.1815 8.83653C16.2075 8.54431 15.9899 8.2871 15.6954 8.26135C15.4004 8.23631 15.1412 8.45122 15.1152 8.74323L14.8924 11.2399L9.72252 8.35765V2.95015L12.0126 3.99672C12.2808 4.11982 12.5988 4.00322 12.7227 3.73702C12.8464 3.47106 12.7293 3.15556 12.4605 3.03321L9.41135 1.63937C9.25513 1.57632 9.11357 1.57557 8.9556 1.63937L5.90644 3.03321C5.63793 3.15556 5.52057 3.47106 5.64446 3.73702C5.76812 4.00322 6.08638 4.11982 6.35439 3.99672L8.64442 2.95015V8.35765L3.4746 11.2399L3.25175 8.74323C3.22576 8.45122 2.96657 8.23631 2.67155 8.26135C2.37704 8.2871 2.15949 8.54431 2.18574 8.83653L2.48354 12.1714C2.49716 12.3258 2.57818 12.4661 2.70512 12.5562L5.43602 14.493C5.67499 14.6626 6.01066 14.6088 6.18253 14.3701C6.35439 14.132 6.29915 13.8007 6.05865 13.6298L3.99574 12.1667L9.18347 9.27437Z" fill="white"/>
</g>
<path d="M30.3076 5.9158L29.6836 11.5918H28.6636L29.6836 2.7718L33.0436 8.8558L36.4036 2.7718L37.4236 11.5918H36.4036L35.7796 5.9158L33.0436 10.8118L30.3076 5.9158ZM38.9304 9.0718V8.2558H42.6144C42.5824 7.9678 42.5024 7.7158 42.3744 7.4998C42.2544 7.2758 42.0824 7.1038 41.8584 6.9838C41.6424 6.8558 41.3744 6.7918 41.0544 6.7918C40.7344 6.7918 40.4424 6.8598 40.1784 6.9958C39.9144 7.1318 39.7024 7.3278 39.5424 7.5838C39.3904 7.8318 39.3144 8.1278 39.3144 8.4718L39.2904 8.8318C39.2904 9.2558 39.3624 9.6158 39.5064 9.9118C39.6504 10.2078 39.8544 10.4318 40.1184 10.5838C40.3824 10.7358 40.6944 10.8118 41.0544 10.8118C41.3264 10.8118 41.5664 10.7718 41.7744 10.6918C41.9904 10.6038 42.1824 10.4878 42.3504 10.3438C42.5184 10.1918 42.6624 10.0158 42.7824 9.8158L43.5624 10.3078C43.3784 10.5878 43.1744 10.8358 42.9504 11.0518C42.7264 11.2598 42.4544 11.4238 42.1344 11.5438C41.8144 11.6558 41.4144 11.7118 40.9344 11.7118C40.4384 11.7118 39.9904 11.5878 39.5904 11.3398C39.1984 11.0918 38.8864 10.7518 38.6544 10.3198C38.4304 9.8798 38.3184 9.3838 38.3184 8.8318C38.3184 8.7278 38.3224 8.6278 38.3304 8.5318C38.3384 8.4358 38.3504 8.3398 38.3664 8.2438C38.4464 7.7878 38.6064 7.3878 38.8464 7.0438C39.0864 6.6998 39.3944 6.4318 39.7704 6.2398C40.1544 6.0478 40.5824 5.9518 41.0544 5.9518C41.5744 5.9518 42.0304 6.0678 42.4224 6.2998C42.8144 6.5318 43.1184 6.8598 43.3344 7.2838C43.5504 7.6998 43.6584 8.1998 43.6584 8.7838C43.6584 8.8318 43.6584 8.8798 43.6584 8.9278C43.6584 8.9758 43.6544 9.0238 43.6464 9.0718H38.9304ZM47.3766 7.7278L45.7566 11.2318H44.6766L47.3766 5.6518L50.0766 11.2318H48.9966L47.3766 7.7278ZM49.8366 11.5918H44.9766V12.6718H43.9566V10.6918H50.7966V12.6718H49.8366V11.5918ZM56.8598 7.0318L52.2998 12.0118L52.3598 10.6318L56.9198 5.6518L56.8598 7.0318ZM53.2598 6.0718V10.6918L52.2998 12.0118V6.0718H53.2598ZM56.9198 5.6518V11.5918H55.9598V6.9718L56.9198 5.6518ZM59.2109 9.9718C59.2109 10.1638 59.2629 10.3278 59.3669 10.4638C59.4709 10.5918 59.6109 10.6918 59.7869 10.7638C59.9629 10.8278 60.1589 10.8598 60.3749 10.8598C60.6949 10.8598 60.9789 10.8118 61.2269 10.7158C61.4749 10.6198 61.6669 10.4678 61.8029 10.2598C61.9469 10.0518 62.0189 9.7758 62.0189 9.4318L62.2109 10.0318C62.2109 10.3838 62.1149 10.6878 61.9229 10.9438C61.7389 11.1918 61.4909 11.3838 61.1789 11.5198C60.8669 11.6478 60.5189 11.7118 60.1349 11.7118C59.7909 11.7118 59.4749 11.6478 59.1869 11.5198C58.8989 11.3918 58.6669 11.2038 58.4909 10.9558C58.3229 10.6998 58.2389 10.3838 58.2389 10.0078C58.2389 9.6158 58.3349 9.2838 58.5269 9.0118C58.7189 8.7398 58.9909 8.5318 59.3429 8.3878C59.6949 8.2358 60.1109 8.1598 60.5909 8.1598C60.9429 8.1598 61.2429 8.2078 61.4909 8.3038C61.7469 8.3918 61.9509 8.4958 62.1029 8.6158C62.2549 8.7278 62.3589 8.8198 62.4149 8.8918V9.4558C62.1429 9.2638 61.8669 9.1238 61.5869 9.0358C61.3069 8.9398 60.9909 8.8918 60.6389 8.8918C60.3189 8.8918 60.0509 8.9358 59.8349 9.0238C59.6269 9.1118 59.4709 9.2358 59.3669 9.3958C59.2629 9.5558 59.2109 9.7478 59.2109 9.9718ZM59.2109 7.3678L58.7429 6.6358C58.9509 6.4838 59.2309 6.3318 59.5829 6.1798C59.9349 6.0278 60.3589 5.9518 60.8549 5.9518C61.2789 5.9518 61.6469 6.0198 61.9589 6.1558C62.2789 6.2838 62.5269 6.4718 62.7029 6.7198C62.8869 6.9678 62.9789 7.2718 62.9789 7.6318V11.5918H62.0189V7.6318C62.0189 7.3518 61.8989 7.1438 61.6589 7.0078C61.4269 6.8638 61.1589 6.7918 60.8549 6.7918C60.5909 6.7918 60.3509 6.8278 60.1349 6.8998C59.9189 6.9638 59.7309 7.0438 59.5709 7.1398C59.4189 7.2278 59.2989 7.3038 59.2109 7.3678ZM69.4391 6.0718V11.5918H68.4791V6.9718H65.6591V9.6718C65.6591 10.1038 65.5911 10.4638 65.4551 10.7518C65.3271 11.0318 65.1271 11.2438 64.8551 11.3878C64.5831 11.5238 64.2391 11.5918 63.8231 11.5918V10.7158C64.0631 10.7158 64.2671 10.6398 64.4351 10.4878C64.6111 10.3358 64.6991 10.0638 64.6991 9.6718V6.0718H69.4391ZM70.8145 8.8318C70.8145 8.2718 70.9385 7.7758 71.1865 7.3438C71.4425 6.9118 71.7865 6.5718 72.2185 6.3238C72.6505 6.0758 73.1345 5.9518 73.6705 5.9518C74.2145 5.9518 74.6985 6.0758 75.1225 6.3238C75.5545 6.5718 75.8945 6.9118 76.1425 7.3438C76.3985 7.7758 76.5265 8.2718 76.5265 8.8318C76.5265 9.3838 76.3985 9.8798 76.1425 10.3198C75.8945 10.7518 75.5545 11.0918 75.1225 11.3398C74.6985 11.5878 74.2145 11.7118 73.6705 11.7118C73.1345 11.7118 72.6505 11.5878 72.2185 11.3398C71.7865 11.0918 71.4425 10.7518 71.1865 10.3198C70.9385 9.8798 70.8145 9.3838 70.8145 8.8318ZM71.7865 8.8318C71.7865 9.2158 71.8665 9.5558 72.0265 9.8518C72.1945 10.1478 72.4185 10.3838 72.6985 10.5598C72.9865 10.7278 73.3105 10.8118 73.6705 10.8118C74.0305 10.8118 74.3505 10.7278 74.6305 10.5598C74.9185 10.3838 75.1425 10.1478 75.3025 9.8518C75.4705 9.5558 75.5545 9.2158 75.5545 8.8318C75.5545 8.4478 75.4705 8.1078 75.3025 7.8118C75.1425 7.5078 74.9185 7.2718 74.6305 7.1038C74.3505 6.9358 74.0305 6.8518 73.6705 6.8518C73.3105 6.8518 72.9865 6.9358 72.6985 7.1038C72.4185 7.2718 72.1945 7.5078 72.0265 7.8118C71.8665 8.1078 71.7865 8.4478 71.7865 8.8318ZM77.9053 6.0718H80.8453V6.9718H78.8653V11.5918H77.9053V6.0718ZM86.4263 7.0318L81.8663 12.0118L81.9263 10.6318L86.4863 5.6518L86.4263 7.0318ZM82.8263 6.0718V10.6918L81.8663 12.0118V6.0718H82.8263ZM86.4863 5.6518V11.5918H85.5263V6.9718L86.4863 5.6518ZM89.1373 11.5918H88.0813L90.1213 8.7118H91.1773L89.1373 11.5918ZM92.6413 11.5918H91.6813V6.0718H92.6413V11.5918ZM92.0773 8.5438V9.3838H90.3613C89.9853 9.3838 89.6413 9.3278 89.3293 9.2158C89.0253 9.1038 88.7853 8.9278 88.6093 8.6878C88.4333 8.4398 88.3453 8.1198 88.3453 7.7278C88.3453 7.3278 88.4333 7.0078 88.6093 6.7678C88.7853 6.5278 89.0253 6.3518 89.3293 6.2398C89.6413 6.1278 89.9853 6.0718 90.3613 6.0718H92.0773V6.9118H90.3613C90.1293 6.9118 89.9333 6.9438 89.7733 7.0078C89.6213 7.0638 89.5053 7.1518 89.4253 7.2718C89.3453 7.3918 89.3053 7.5438 89.3053 7.7278C89.3053 7.9118 89.3453 8.0638 89.4253 8.1838C89.5053 8.3038 89.6213 8.3958 89.7733 8.4598C89.9333 8.5158 90.1293 8.5438 90.3613 8.5438H92.0773Z" fill="#BBC7D3"/>
<defs>
<clipPath id="clip0_117_447">
<rect width="18" height="17" fill="white" transform="translate(0.183594 0.591797)"/>
</clipPath>
</defs>
</svg>
