<svg width="109" height="34" viewBox="0 0 109 34" fill="none" xmlns="http://www.w3.org/2000/svg">
<g clip-path="url(#clip0_117_387)">
<path fill-rule="evenodd" clip-rule="evenodd" d="M20.0866 9.84812C20.1812 9.74895 20.1829 9.58647 20.0903 9.48523C19.9977 9.38399 19.8459 9.38234 19.7512 9.48151L17.3311 12.017C17.2365 12.1162 17.2348 12.2786 17.3274 12.3799C17.42 12.4811 17.5718 12.4828 17.6665 12.3836L20.0866 9.84812ZM22.2619 12.4283C22.3792 12.3624 22.4244 12.2073 22.3629 12.0818C22.3014 11.9563 22.1565 11.9081 22.0392 11.974L17.5938 14.4735C17.4765 14.5394 17.4313 14.6945 17.4929 14.82C17.5543 14.9455 17.6993 14.9937 17.8165 14.9277L22.2619 12.4283ZM14.4309 10.6784C14.5595 10.6444 14.6894 10.7283 14.7211 10.8659L16.0811 16.7609C16.1128 16.8985 16.0343 17.0376 15.9058 17.0717C15.7772 17.1057 15.6473 17.0218 15.6156 16.8842L14.2556 10.9892C14.2239 10.8517 14.3024 10.7125 14.4309 10.6784ZM11.3575 12.2498C11.4743 12.1831 11.6195 12.2303 11.6818 12.3553L13.5226 16.0525C13.5849 16.1776 13.5406 16.333 13.4238 16.3997C13.3069 16.4664 13.1617 16.4191 13.0995 16.2941L11.2586 12.597C11.1963 12.472 11.2406 12.3165 11.3575 12.2498ZM10.821 18.4833C10.8466 18.3442 10.9728 18.2537 11.1026 18.2811L16.3813 19.3934C16.5112 19.4207 16.5957 19.5556 16.57 19.6947C16.5444 19.8337 16.4182 19.9243 16.2883 19.8969L11.0098 18.7846C10.8799 18.7573 10.7954 18.6223 10.821 18.4833ZM19.235 19.0286C19.3532 19.0923 19.4007 19.2466 19.341 19.3732L16.9916 24.3568C16.932 24.4833 16.7878 24.5342 16.6696 24.4705C16.5514 24.4067 16.504 24.2524 16.5636 24.1259L18.9129 19.1423C18.9726 19.0157 19.1167 18.9648 19.235 19.0286ZM11.0898 22.0614C11.0732 21.9209 11.1662 21.7924 11.2976 21.7746L15.0495 21.265C15.1809 21.2472 15.3008 21.3467 15.3174 21.4873C15.3339 21.6278 15.2409 21.7563 15.1096 21.7741L11.3577 22.2838C11.2263 22.3015 11.1064 22.202 11.0898 22.0614ZM21.0978 21.5027C21.1302 21.3652 21.0522 21.2259 20.9239 21.1913C20.7954 21.1568 20.6652 21.2403 20.6329 21.3777L19.7601 25.0891C19.7278 25.2266 19.8057 25.3659 19.9341 25.4004C20.0625 25.4349 20.1928 25.3515 20.2251 25.214L21.0978 21.5027ZM22.3102 15.4582C22.3749 15.3345 22.521 15.2904 22.6365 15.3596L25.6939 17.1926C25.8094 17.2619 25.8505 17.4183 25.7857 17.542C25.721 17.6656 25.5748 17.7097 25.4593 17.6405L22.402 15.8075C22.2865 15.7382 22.2453 15.5819 22.3102 15.4582ZM19.9809 16.3836C20.0737 16.2824 20.2255 16.2809 20.3199 16.3801L24.0693 20.3204C24.1638 20.4197 24.165 20.5822 24.0723 20.6833C23.9795 20.7844 23.8276 20.786 23.7332 20.6868L19.9839 16.7464C19.8894 16.6472 19.8881 16.4847 19.9809 16.3836Z" fill="#BBC7D3" stroke="#BBC7D3"/>
<path fill-rule="evenodd" clip-rule="evenodd" d="M13.9047 4.4082L14.1414 4.45223C18.7774 5.31436 21.9657 7.75053 23.9913 10.2143L29.2181 9.97712L29.4408 9.96699L29.4889 10.1929C30.5354 15.1113 28.9053 19.4581 26.9821 22.444L28.6057 27.5696L28.6741 27.7854L28.4829 27.8963C25.2581 29.7687 21.9299 29.9129 19.09 29.3384C18.5724 29.2336 18.0706 29.105 17.588 28.9584L13.6905 32.2476L13.5001 32.4082L13.3308 32.2241C9.92301 28.5187 8.73734 24.3203 8.53243 20.9518L3.92178 17.6982L3.81641 17.6516C4.72318 15.4467 7.53303 11.481 12.5111 9.49364L13.8389 4.64834L13.9047 4.4082ZM4.49698 17.4372L8.50359 20.2646C8.46167 18.4524 8.69845 16.9273 8.99817 15.919L9.07236 15.6692L9.31657 15.7327L17.765 17.9245L17.2801 8.91843C9.94322 9.60113 5.83939 14.6317 4.49698 17.4372ZM26.6676 15.0132C26.3461 13.9099 25.6201 12.3462 24.4114 10.7471L29.0163 10.5381C30.3525 17.3481 26.3805 23.0248 24.019 25.2142L18.5201 18.4023L26.5049 15.3518L26.74 15.262L26.6676 15.0132ZM26.0824 14.9259L18.2958 17.9006L17.7954 8.60495L17.7803 8.32469L17.5105 8.34563C15.904 8.47033 14.4443 8.79667 13.1269 9.26209L14.2837 5.04051C21.6441 6.51278 25.153 12.0919 26.0824 14.9259ZM26.6024 23.0112C25.748 24.2393 24.8673 25.1967 24.1604 25.8169L23.9566 25.9957L23.7853 25.7835L18.1007 18.7417L13.1011 26.1628C14.3941 27.1153 16.5858 28.2699 19.1921 28.7972C21.8824 29.3415 25.0014 29.2154 28.032 27.5244L26.6024 23.0112ZM9.43571 16.3319L17.6419 18.4609L12.5165 26.0685L12.3693 26.2871L12.5747 26.4469C13.5486 27.205 15.0943 28.1093 16.9801 28.761L13.5472 31.6581C8.49137 26.0106 8.66764 19.2537 9.43571 16.3319Z" fill="#BBC7D3" stroke="#BBC7D3"/>
</g>
<path d="M50.4164 6.4682H45.7964V13.9082H44.7764V5.5082H51.4364V13.9082H50.4164V6.4682ZM54.1945 16.5482H53.2345V8.3882H54.1945V16.5482ZM58.8145 11.1482C58.8145 11.7402 58.6905 12.2522 58.4425 12.6842C58.1945 13.1162 57.8625 13.4482 57.4465 13.6802C57.0385 13.9122 56.5825 14.0282 56.0785 14.0282C55.6225 14.0282 55.2185 13.9122 54.8665 13.6802C54.5225 13.4482 54.2505 13.1162 54.0505 12.6842C53.8585 12.2522 53.7625 11.7402 53.7625 11.1482C53.7625 10.5482 53.8585 10.0362 54.0505 9.6122C54.2505 9.1802 54.5225 8.8482 54.8665 8.6162C55.2185 8.3842 55.6225 8.2682 56.0785 8.2682C56.5825 8.2682 57.0385 8.3842 57.4465 8.6162C57.8625 8.8482 58.1945 9.1802 58.4425 9.6122C58.6905 10.0362 58.8145 10.5482 58.8145 11.1482ZM57.8425 11.1482C57.8425 10.7242 57.7545 10.3642 57.5785 10.0682C57.4105 9.7722 57.1825 9.5482 56.8945 9.3962C56.6145 9.2442 56.3025 9.1682 55.9585 9.1682C55.6785 9.1682 55.4025 9.2442 55.1305 9.3962C54.8585 9.5482 54.6345 9.7722 54.4585 10.0682C54.2825 10.3642 54.1945 10.7242 54.1945 11.1482C54.1945 11.5722 54.2825 11.9322 54.4585 12.2282C54.6345 12.5242 54.8585 12.7482 55.1305 12.9002C55.4025 13.0522 55.6785 13.1282 55.9585 13.1282C56.3025 13.1282 56.6145 13.0522 56.8945 12.9002C57.1825 12.7482 57.4105 12.5242 57.5785 12.2282C57.7545 11.9322 57.8425 11.5722 57.8425 11.1482ZM60.2703 11.3882V10.5722H63.9543C63.9223 10.2842 63.8423 10.0322 63.7143 9.8162C63.5943 9.5922 63.4223 9.4202 63.1983 9.3002C62.9823 9.1722 62.7143 9.1082 62.3943 9.1082C62.0743 9.1082 61.7823 9.1762 61.5183 9.3122C61.2543 9.4482 61.0423 9.6442 60.8823 9.9002C60.7303 10.1482 60.6543 10.4442 60.6543 10.7882L60.6303 11.1482C60.6303 11.5722 60.7023 11.9322 60.8463 12.2282C60.9903 12.5242 61.1943 12.7482 61.4583 12.9002C61.7223 13.0522 62.0343 13.1282 62.3943 13.1282C62.6663 13.1282 62.9063 13.0882 63.1143 13.0082C63.3303 12.9202 63.5223 12.8042 63.6903 12.6602C63.8583 12.5082 64.0023 12.3322 64.1223 12.1322L64.9023 12.6242C64.7183 12.9042 64.5143 13.1522 64.2903 13.3682C64.0663 13.5762 63.7943 13.7402 63.4743 13.8602C63.1543 13.9722 62.7543 14.0282 62.2743 14.0282C61.7783 14.0282 61.3303 13.9042 60.9303 13.6562C60.5383 13.4082 60.2263 13.0682 59.9943 12.6362C59.7703 12.1962 59.6583 11.7002 59.6583 11.1482C59.6583 11.0442 59.6623 10.9442 59.6703 10.8482C59.6783 10.7522 59.6903 10.6562 59.7063 10.5602C59.7863 10.1042 59.9463 9.7042 60.1863 9.3602C60.4263 9.0162 60.7343 8.7482 61.1103 8.5562C61.4943 8.3642 61.9223 8.2682 62.3943 8.2682C62.9143 8.2682 63.3703 8.3842 63.7623 8.6162C64.1543 8.8482 64.4583 9.1762 64.6743 9.6002C64.8903 10.0162 64.9983 10.5162 64.9983 11.1002C64.9983 11.1482 64.9983 11.1962 64.9983 11.2442C64.9983 11.2922 64.9943 11.3402 64.9863 11.3882H60.2703ZM66.7461 11.1482C66.7461 11.5322 66.8261 11.8722 66.9861 12.1682C67.1541 12.4642 67.3781 12.7002 67.6581 12.8762C67.9461 13.0442 68.2701 13.1282 68.6301 13.1282C68.9261 13.1282 69.2021 13.0842 69.4581 12.9962C69.7221 12.9002 69.9501 12.7762 70.1421 12.6242C70.3341 12.4642 70.4701 12.2962 70.5501 12.1202V13.3202C70.3581 13.5442 70.0821 13.7202 69.7221 13.8482C69.3701 13.9682 69.0061 14.0282 68.6301 14.0282C68.0941 14.0282 67.6101 13.9042 67.1781 13.6562C66.7461 13.4082 66.4021 13.0682 66.1461 12.6362C65.8981 12.1962 65.7741 11.7002 65.7741 11.1482C65.7741 10.5882 65.8981 10.0922 66.1461 9.6602C66.4021 9.2282 66.7461 8.8882 67.1781 8.6402C67.6101 8.3922 68.0941 8.2682 68.6301 8.2682C69.0061 8.2682 69.3701 8.3322 69.7221 8.4602C70.0821 8.5802 70.3581 8.7522 70.5501 8.9762V10.1762C70.4701 9.9922 70.3341 9.8242 70.1421 9.6722C69.9501 9.5202 69.7221 9.4002 69.4581 9.3122C69.2021 9.2162 68.9261 9.1682 68.6301 9.1682C68.2701 9.1682 67.9461 9.2522 67.6581 9.4202C67.3781 9.5882 67.1541 9.8242 66.9861 10.1282C66.8261 10.4242 66.7461 10.7642 66.7461 11.1482ZM72.4765 11.1482C72.4765 11.5322 72.5565 11.8722 72.7165 12.1682C72.8845 12.4642 73.1085 12.7002 73.3885 12.8762C73.6765 13.0442 74.0005 13.1282 74.3605 13.1282C74.6565 13.1282 74.9325 13.0842 75.1885 12.9962C75.4525 12.9002 75.6805 12.7762 75.8725 12.6242C76.0645 12.4642 76.2005 12.2962 76.2805 12.1202V13.3202C76.0885 13.5442 75.8125 13.7202 75.4525 13.8482C75.1005 13.9682 74.7365 14.0282 74.3605 14.0282C73.8245 14.0282 73.3405 13.9042 72.9085 13.6562C72.4765 13.4082 72.1325 13.0682 71.8765 12.6362C71.6285 12.1962 71.5045 11.7002 71.5045 11.1482C71.5045 10.5882 71.6285 10.0922 71.8765 9.6602C72.1325 9.2282 72.4765 8.8882 72.9085 8.6402C73.3405 8.3922 73.8245 8.2682 74.3605 8.2682C74.7365 8.2682 75.1005 8.3322 75.4525 8.4602C75.8125 8.5802 76.0885 8.7522 76.2805 8.9762V10.1762C76.2005 9.9922 76.0645 9.8242 75.8725 9.6722C75.6805 9.5202 75.4525 9.4002 75.1885 9.3122C74.9325 9.2162 74.6565 9.1682 74.3605 9.1682C74.0005 9.1682 73.6765 9.2522 73.3885 9.4202C73.1085 9.5882 72.8845 9.8242 72.7165 10.1282C72.5565 10.4242 72.4765 10.7642 72.4765 11.1482ZM52.0964 20.6482L44.7764 28.3282L44.8364 26.7682L52.1564 19.0882L52.0964 20.6482ZM45.7964 19.5082V27.0082L44.7764 28.3282V19.5082H45.7964ZM52.1564 19.0882V27.9082H51.1364V20.4082L52.1564 19.0882ZM54.5851 25.4482V24.5482H58.6651V25.4482H54.5851ZM58.0411 22.3882H59.0011V27.9082H58.0411V22.3882ZM54.0211 22.3882H54.9811V27.9082H54.0211V22.3882ZM63.8063 24.0442L62.1863 27.5482H61.1063L63.8063 21.9682L66.5063 27.5482H65.4263L63.8063 24.0442ZM66.2663 27.9082H61.4062V28.9882H60.3863V27.0082H67.2263V28.9882H66.2663V27.9082ZM68.8015 25.3882V24.5722H72.4855C72.4535 24.2842 72.3735 24.0322 72.2455 23.8162C72.1255 23.5922 71.9535 23.4202 71.7295 23.3002C71.5135 23.1722 71.2455 23.1082 70.9255 23.1082C70.6055 23.1082 70.3135 23.1762 70.0495 23.3122C69.7855 23.4482 69.5735 23.6442 69.4135 23.9002C69.2615 24.1482 69.1855 24.4442 69.1855 24.7882L69.1615 25.1482C69.1615 25.5722 69.2335 25.9322 69.3775 26.2282C69.5215 26.5242 69.7255 26.7482 69.9895 26.9002C70.2535 27.0522 70.5655 27.1282 70.9255 27.1282C71.1975 27.1282 71.4375 27.0882 71.6455 27.0082C71.8615 26.9202 72.0535 26.8042 72.2215 26.6602C72.3895 26.5082 72.5335 26.3322 72.6535 26.1322L73.4335 26.6242C73.2495 26.9042 73.0455 27.1522 72.8215 27.3682C72.5975 27.5762 72.3255 27.7402 72.0055 27.8602C71.6855 27.9722 71.2855 28.0282 70.8055 28.0282C70.3095 28.0282 69.8615 27.9042 69.4615 27.6562C69.0695 27.4082 68.7575 27.0682 68.5255 26.6362C68.3015 26.1962 68.1895 25.7002 68.1895 25.1482C68.1895 25.0442 68.1935 24.9442 68.2015 24.8482C68.2095 24.7522 68.2215 24.6562 68.2375 24.5602C68.3175 24.1042 68.4775 23.7042 68.7175 23.3602C68.9575 23.0162 69.2655 22.7482 69.6415 22.5562C70.0255 22.3642 70.4535 22.2682 70.9255 22.2682C71.4455 22.2682 71.9015 22.3842 72.2935 22.6162C72.6855 22.8482 72.9895 23.1762 73.2055 23.6002C73.4215 24.0162 73.5295 24.5162 73.5295 25.1002C73.5295 25.1482 73.5295 25.1962 73.5295 25.2442C73.5295 25.2922 73.5255 25.3402 73.5175 25.3882H68.8015ZM74.7853 22.3882H75.7453V27.9082H74.7853V22.3882ZM77.7853 22.3882H78.9853L76.5853 24.6682L79.2253 27.9082H78.0253L75.3853 24.6682L77.7853 22.3882ZM80.3867 25.1482C80.3867 25.5322 80.4667 25.8722 80.6267 26.1682C80.7947 26.4642 81.0187 26.7002 81.2987 26.8762C81.5867 27.0442 81.9107 27.1282 82.2707 27.1282C82.5667 27.1282 82.8427 27.0842 83.0987 26.9962C83.3627 26.9002 83.5907 26.7762 83.7827 26.6242C83.9747 26.4642 84.1107 26.2962 84.1907 26.1202V27.3202C83.9987 27.5442 83.7227 27.7202 83.3627 27.8482C83.0107 27.9682 82.6467 28.0282 82.2707 28.0282C81.7347 28.0282 81.2507 27.9042 80.8187 27.6562C80.3867 27.4082 80.0427 27.0682 79.7867 26.6362C79.5387 26.1962 79.4147 25.7002 79.4147 25.1482C79.4147 24.5882 79.5387 24.0922 79.7867 23.6602C80.0427 23.2282 80.3867 22.8882 80.8187 22.6402C81.2507 22.3922 81.7347 22.2682 82.2707 22.2682C82.6467 22.2682 83.0107 22.3322 83.3627 22.4602C83.7227 22.5802 83.9987 22.7522 84.1907 22.9762V24.1762C84.1107 23.9922 83.9747 23.8242 83.7827 23.6722C83.5907 23.5202 83.3627 23.4002 83.0987 23.3122C82.8427 23.2162 82.5667 23.1682 82.2707 23.1682C81.9107 23.1682 81.5867 23.2522 81.2987 23.4202C81.0187 23.5882 80.7947 23.8242 80.6267 24.1282C80.4667 24.4242 80.3867 24.7642 80.3867 25.1482Z" fill="#BBC7D3"/>
<defs>
<clipPath id="clip0_117_387">
<rect width="33" height="33" fill="white" transform="translate(0.816406 0.408203)"/>
</clipPath>
</defs>
</svg>
