<svg width="109" height="23" viewBox="0 0 109 23" fill="none" xmlns="http://www.w3.org/2000/svg">
<g clip-path="url(#clip0_117_430)">
<path d="M4.98409 13.9041V15.4511C4.98409 15.89 4.63379 16.2768 4.18384 16.2768C4.07873 16.2785 3.97435 16.2585 3.87684 16.2177C3.77933 16.1769 3.69067 16.1163 3.61609 16.0394C3.5415 15.9625 3.48251 15.8708 3.44258 15.7699C3.40265 15.6689 3.38259 15.5607 3.38359 15.4516V13.0011H0.183594V15.4516C0.183594 17.6951 1.95874 19.5263 4.18384 19.5263C6.38378 19.5263 8.18359 17.6951 8.18359 15.4516V13.8268C8.18359 9.75155 3.38359 8.92636 3.38359 6.45078V4.8511C3.38359 4.41264 3.73389 4.0254 4.18384 4.0254C4.63379 4.0254 4.98359 4.38652 4.98359 4.85059V7.30107H8.18359V4.8511C8.15893 2.60757 6.38378 0.776367 4.18384 0.776367C1.95874 0.776367 0.183594 2.60757 0.183594 4.8511V6.47639C0.183594 10.5511 4.98409 11.3768 4.98409 13.9041ZM8.15893 21.1516H0.183594V22.7764H8.15893V21.1516Z" fill="#BBC7D3"/>
<path d="M9.94922 4.90545C9.94922 2.63199 11.8099 0.776367 14.0837 0.776367C16.358 0.776367 18.2182 2.63199 18.2182 4.90545V7.38861H14.9103V4.90545C14.9103 4.46166 14.5482 4.06977 14.0837 4.06977C13.6187 4.06977 13.2566 4.43518 13.2566 4.90545V15.6473C13.2566 16.0916 13.6187 16.4835 14.0837 16.4835C14.5488 16.4835 14.9103 16.1175 14.9103 15.6473V13.1641H18.2182V15.6473C18.2182 17.9207 16.3575 19.7764 14.0837 19.7764C11.8094 19.7764 9.94922 17.9207 9.94922 15.6473V4.90545ZM36.6418 0.776367V10.6815L34.161 0.776367H30.8797V19.7764H34.161V9.87124L36.6418 19.7764H39.9492V0.776367H36.6418ZM25.9181 0.776367H22.6107L19.3293 19.7764H22.6367L23.0757 16.4835H25.453L25.9181 19.7764H29.2255L25.9181 0.776367ZM23.4378 13.1641L24.2644 6.60431L25.0915 13.1641H23.4378Z" fill="#E2F1FF"/>
<path d="M50.0217 13.6065V14.4528H51.4327V8.84487H49.9083V11.4022C49.9083 12.0244 49.8693 12.4498 49.7916 12.6806C49.7147 12.9118 49.5706 13.0957 49.361 13.2362C49.1519 13.3763 48.9148 13.4456 48.6508 13.4456C48.4445 13.4456 48.2685 13.3974 48.1221 13.2994C47.9752 13.202 47.8701 13.0644 47.8047 12.8874C47.7397 12.7119 47.7072 12.322 47.7072 11.7205V8.84487H46.1836V12.335C46.1836 12.7645 46.2116 13.0938 46.2671 13.325C46.3238 13.5544 46.4233 13.7608 46.5659 13.9427C46.7086 14.1241 46.9189 14.2725 47.1981 14.3904C47.4763 14.507 47.7844 14.5648 48.1221 14.5648C48.885 14.5648 49.5176 14.2459 50.0217 13.6065ZM52.1099 8.84487H53.6101V10.923H55.7604V8.84487H57.2594V14.4528H55.7604V12.1151H53.61V14.4528H52.1099V8.84487ZM60.8539 8.84487H57.8046V10.5987L59.3285 10.0213V14.4608H60.8539V10.0213L62.3794 10.5987V8.84487H60.8539ZM64.6028 10.199C64.8833 9.94336 65.2173 9.81891 65.6238 9.81891C66.0325 9.81891 66.3561 9.96018 66.6134 10.2503C66.773 10.4334 66.8572 10.6431 66.9088 10.8655H64.1776C64.2667 10.6024 64.4049 10.3798 64.6028 10.199ZM67.1163 12.6166C67.1163 12.6166 66.8518 13.1911 66.3325 13.4456C66.1388 13.5405 65.8962 13.588 65.6134 13.588C65.1101 13.588 64.7244 13.4034 64.4363 13.0233C64.2277 12.7514 64.1029 12.4456 64.0559 12.0974H68.3557C68.3557 12.0974 68.5372 10.5747 67.7594 9.59969C67.2352 8.94172 66.5315 8.58765 65.6123 8.58765C64.6716 8.58765 63.9143 8.90976 63.3602 9.54478C62.8523 10.1248 62.5933 10.851 62.5933 11.7031C62.5933 12.5321 62.8523 13.2496 63.3602 13.8382C63.9212 14.489 64.6799 14.8193 65.6123 14.8193C66.2681 14.8193 66.8452 14.6423 67.3275 14.2953C68.2088 13.6595 68.5521 12.6165 68.5521 12.6165L67.1163 12.6166ZM72.5488 12.9687C72.3181 13.2459 72.0288 13.3845 71.6824 13.3845C71.3203 13.3845 71.0139 13.2335 70.762 12.9318C70.5106 12.6297 70.3844 12.163 70.3844 11.531C70.3844 10.9809 70.5044 10.5644 70.7459 10.2839C70.9874 10.0029 71.2895 9.86383 71.6559 9.86383C72.0062 9.86383 72.3 10.0058 72.537 10.2922C72.7747 10.5781 72.8941 11.0156 72.8941 11.6052C72.8941 12.2372 72.7785 12.6908 72.5488 12.9687ZM73.736 9.46307C73.2775 8.95369 72.7202 8.69806 72.0635 8.69806C71.6855 8.69806 71.3423 8.78848 71.0331 8.96813C70.7245 9.14848 70.4792 9.37819 70.2987 9.65746V8.84042H68.8992V16.5358H70.3993V13.736C70.6798 14.0331 70.9461 14.2422 71.2003 14.3644C71.4544 14.4868 71.7394 14.5486 72.052 14.5486C72.7088 14.5486 73.268 14.2893 73.7307 13.7711C74.1917 13.2523 74.4227 12.5262 74.4227 11.5917C74.4227 10.682 74.194 9.97195 73.736 9.46307ZM83.7588 12.4169C83.7229 11.3442 85.4498 10.7972 86.6435 11.4017V13.4125C85.3253 13.953 83.8274 13.4743 83.7588 12.4169ZM86.6435 14.4528H88.3279V11.6979C88.3279 10.7897 88.386 10.1946 88.0017 9.6077C87.616 9.02007 86.8507 8.78848 86.3106 8.78848H83.2251C82.9357 8.79976 83.0046 8.45806 83.0276 8.3895C83.7588 5.67402 84.3488 4.87518 85.3456 4.95541C85.7748 5.01229 86.0405 5.02367 86.2385 5.26347C86.401 5.45737 86.4594 5.48052 86.7717 5.0122C86.9276 4.75839 87.0821 4.50378 87.2353 4.24837C87.3395 4.06575 87.6073 3.82644 87.212 3.78044C82.4708 3.67766 82.4027 5.52613 80.78 8.56055C80.6059 8.84576 80.4193 8.83438 79.8757 8.83438H78.2872C76.143 8.83438 75.0304 10.4888 74.9036 11.413C74.7991 11.9713 74.7406 12.4504 75.0189 13.0444C75.2387 13.4889 75.772 14.0938 76.5606 14.4359C76.7699 14.5156 76.897 14.3677 76.9081 14.3563C77.141 14.15 77.8591 13.5232 78.0679 13.3634C78.195 13.249 78.0437 13.1808 77.9512 13.1699C76.6188 13.0097 76.1315 12.6562 75.9002 11.7883C75.8305 11.1389 76.143 9.69011 78.531 9.66676C79.4935 9.69011 80.2693 9.57634 79.9102 10.4198C78.6122 13.5918 78.3103 14.174 76.9544 16.7399C76.1315 17.9269 75.1126 18.0983 73.4417 17.5841C73.0085 17.4503 72.8733 17.746 72.8137 17.8731C72.7248 18.0606 72.5691 18.4049 72.5106 18.5269C72.4177 18.713 72.4925 18.7774 72.6273 18.7764C74.9575 18.753 77.267 18.3145 79.0404 16.3295C80.6983 14.2416 81.0809 12.5646 82.1699 10.4428C82.3442 10.0664 82.6006 9.72414 83.0425 9.72414H85.6582C86.4959 9.72414 86.6435 10.0664 86.6435 10.5113C86.0405 10.329 85.5311 10.2484 84.8139 10.329C83.2711 10.4888 82.297 11.1043 82.2289 12.4737C82.2398 13.5009 83.248 14.5616 85.0206 14.527C85.7566 14.561 86.2522 14.4592 86.6435 14.0585V14.4528ZM90.6646 14.4528V12.0389C90.8821 12.0389 91.0471 12.0858 91.1582 12.1781C91.2676 12.2711 91.3999 12.4791 91.5504 12.8046L92.2155 14.4528H93.8087L93.0643 12.8754C93.0443 12.8391 93.0249 12.8025 93.006 12.7656C92.6814 12.0865 92.2841 11.6836 91.8138 11.5543C92.1403 11.4357 92.3882 11.1189 92.5621 10.6066C92.6892 10.2261 92.8081 9.99758 92.9167 9.92002C93.0269 9.84691 93.2785 9.80961 93.6712 9.80961L93.6658 8.82795C93.3862 8.81113 93.1892 8.80203 93.0772 8.80203C92.7084 8.80203 92.4123 8.87949 92.1859 9.03323C91.9602 9.18755 91.752 9.53875 91.561 10.0886C91.4157 10.5011 91.292 10.7682 91.19 10.891C91.0871 11.0134 90.9117 11.0887 90.6646 11.1167V8.84497H89.1647V14.4529L90.6646 14.4528ZM99.1116 10.5163L97.6407 10.7713C97.5906 10.4838 97.4762 10.2683 97.2998 10.1233C97.1226 9.97759 96.8927 9.90488 96.6098 9.90488C96.2347 9.90488 95.9348 10.0322 95.7114 10.2867C95.4868 10.5418 95.3754 10.9679 95.3754 11.5645C95.3754 12.2301 95.4879 12.699 95.7147 12.9713C95.9416 13.2464 96.2463 13.3834 96.6267 13.3834C96.9118 13.3834 97.1456 13.3021 97.3273 13.1408C97.5092 12.9789 97.6374 12.7001 97.7117 12.3047L99.1836 12.5458C99.0313 13.2204 98.7381 13.7288 98.3045 14.0738C97.8724 14.4186 97.291 14.5898 96.5631 14.5898C95.7356 14.5898 95.0765 14.3319 94.5843 13.8159C94.0925 13.2995 93.8461 12.5842 93.8461 11.6711C93.8461 10.7471 94.0937 10.0274 94.5865 9.51243C95.0811 8.99751 95.7496 8.7402 96.5904 8.7402C97.2805 8.7402 97.8272 8.88642 98.2348 9.17944C98.6415 9.47177 98.9342 9.91695 99.1116 10.5163Z" fill="#BBC7D3"/>
</g>
<defs>
<clipPath id="clip0_117_430">
<rect width="108" height="22" fill="white" transform="translate(0.183594 0.776367)"/>
</clipPath>
</defs>
</svg>
