<svg width="60" height="30" viewBox="0 0 60 30" fill="none" xmlns="http://www.w3.org/2000/svg">
<path d="M5.17129 15.1485C7.98202 15.1485 10.2606 12.87 10.2606 10.0592C10.2606 7.24851 7.98202 4.96997 5.17129 4.96997C2.36057 4.96997 0.0820312 7.24851 0.0820312 10.0592C0.0820312 12.87 2.36057 15.1485 5.17129 15.1485Z" fill="#242832"/>
<path d="M29.7156 0.183105C25.5847 0.183105 22.2329 3.53494 22.2329 7.6658C22.2329 11.7967 25.5847 15.1485 29.7156 15.1485C33.8465 15.1485 37.1983 11.7967 37.1983 7.6658C37.1983 3.53494 33.8465 0.183105 29.7156 0.183105ZM29.7156 14.0569C28.1832 12.4988 27.2094 10.213 27.2094 7.6658C27.2094 5.11348 28.1832 2.8328 29.7156 1.27475C31.248 2.8328 32.2218 5.11861 32.2218 7.6658C32.2218 10.213 31.248 12.4988 29.7156 14.0569Z" fill="#242832"/>
<path d="M54.2602 15.1485C57.0709 15.1485 59.3494 12.87 59.3494 10.0592C59.3494 7.24851 57.0709 4.96997 54.2602 4.96997C51.4494 4.96997 49.1709 7.24851 49.1709 10.0592C49.1709 12.87 51.4494 15.1485 54.2602 15.1485Z" fill="#242832"/>
<path d="M43.1844 3.08374C39.8787 3.08374 37.1982 5.76419 37.1982 9.06991C37.1982 12.3756 39.8787 15.0561 43.1844 15.0561C46.4901 15.0561 49.1706 12.3756 49.1706 9.06991C49.1706 5.76419 46.4901 3.08374 43.1844 3.08374ZM44.3068 13.8568C43.374 12.514 42.8154 10.8637 42.8154 9.06991C42.8154 7.27611 43.374 5.62581 44.3068 4.28303C45.7009 5.36443 46.608 7.10185 46.608 9.06991C46.608 11.038 45.7009 12.7703 44.3068 13.8568Z" fill="#242832"/>
<path d="M16.2467 3.17627C12.9409 3.17627 10.2605 5.85671 10.2605 9.16243C10.2605 12.4681 12.9409 15.1486 16.2467 15.1486C19.5524 15.1486 22.2328 12.4681 22.2328 9.16243C22.2328 5.85671 19.5524 3.17627 16.2467 3.17627ZM15.1243 13.9493C13.7302 12.8679 12.8231 11.1305 12.8231 9.16243C12.8231 7.19437 13.7302 5.45695 15.1243 4.37555C16.057 5.71834 16.6157 7.36863 16.6157 9.16243C16.6157 10.9562 16.057 12.6065 15.1243 13.9493Z" fill="#242832"/>
<path d="M0.820022 24.328V21.6783H10.0555V24.328H0.820022ZM8.18997 17.2348H11.1369V29.4326H8.18997V17.2348ZM0 17.2348H2.94695V29.4326H0V17.2348ZM14.5554 23.3337C14.5554 24.0563 14.6938 24.6918 14.9757 25.2505C15.2678 25.7989 15.6675 26.2243 16.1801 26.542C16.7028 26.8547 17.3127 27.0135 18.0097 27.0135C18.6965 27.0135 19.291 26.8547 19.8035 26.542C20.3263 26.2294 20.7261 25.7989 21.0079 25.2505C21.3001 24.6918 21.4436 24.0563 21.4436 23.3337C21.4436 22.611 21.3052 21.9806 21.0233 21.4323C20.7466 20.8736 20.3519 20.438 19.8394 20.1253C19.3269 19.8127 18.717 19.6538 18.0097 19.6538C17.3127 19.6538 16.7028 19.8127 16.1801 20.1253C15.6675 20.438 15.2678 20.8736 14.9757 21.4323C14.6938 21.9806 14.5554 22.6162 14.5554 23.3337ZM11.4342 23.3337C11.4342 22.3907 11.5982 21.5348 11.9211 20.7557C12.2593 19.9767 12.7206 19.3053 13.3151 18.7364C13.9096 18.1675 14.6066 17.7319 15.4062 17.4295C16.2057 17.1169 17.0718 16.958 18.0046 16.958C18.9476 16.958 19.8087 17.1169 20.6031 17.4295C21.4026 17.7319 22.0996 18.1675 22.6941 18.7364C23.2886 19.3053 23.7448 19.9818 24.0728 20.7557C24.3957 21.5348 24.5597 22.3958 24.5597 23.3337C24.5597 24.2767 24.3957 25.1377 24.0728 25.9321C23.7601 26.7214 23.304 27.4082 22.7146 27.9873C22.1355 28.5664 21.4436 29.0226 20.6389 29.3455C19.8394 29.6581 18.9579 29.817 18.0097 29.817C17.0462 29.817 16.1647 29.6581 15.36 29.3455C14.5605 29.0226 13.8635 28.5664 13.269 27.9873C12.6898 27.4082 12.2337 26.7214 11.9108 25.9321C11.5931 25.1429 11.4342 24.2767 11.4342 23.3337ZM26.825 29.4326V27.0084H32.9751V29.4326H26.825ZM26.825 19.659V17.2348H32.9751V19.659H26.825ZM26.825 24.205V21.8371H32.6266V24.205H26.825ZM24.8723 17.2348H27.6963V29.4326H24.8723V17.2348ZM46.0699 17.2348H49.0681V29.4326H46.0699V17.2348ZM53.1323 23.9077H56.1818L60 29.4326H56.5508L53.1323 23.9077ZM50.0829 17.2348H53.0298V29.4326H50.0829V17.2348ZM51.933 17.2348H54.5315C55.577 17.2348 56.4483 17.4039 57.1453 17.7422C57.8423 18.0804 58.3702 18.5519 58.729 19.1516C59.0877 19.7461 59.2671 20.4329 59.2671 21.2272C59.2671 22.0063 59.0877 22.6982 58.729 23.3029C58.3702 23.8974 57.8423 24.3587 57.1453 24.697C56.4483 25.0352 55.577 25.2044 54.5315 25.2044H51.933V22.9237H54.3214C54.716 22.9237 55.0542 22.8673 55.331 22.7494C55.6231 22.6213 55.8435 22.4419 55.9921 22.2113C56.1408 21.9653 56.2176 21.6783 56.2176 21.34C56.2176 21.0017 56.1408 20.7199 55.9921 20.4841C55.8435 20.2381 55.618 20.0536 55.331 19.9255C55.0542 19.7973 54.716 19.7358 54.3214 19.7358H51.933V17.2348Z" fill="#242832"/>
<path d="M42.2209 17.2348H45.0602V29.4331L44.3731 29.4335L36.6294 22.57V29.4377H33.8054V17.2348H34.4918L42.2209 24.1025V17.2348Z" fill="#242832"/>
</svg>
