<svg width="18" height="18" viewBox="0 0 18 18" fill="none" xmlns="http://www.w3.org/2000/svg">
<mask id="mask0_236_1424" style="mask-type:alpha" maskUnits="userSpaceOnUse" x="0" y="0" width="18" height="18">
<rect width="18" height="18" fill="#D9D9D9"/>
</mask>
<g mask="url(#mask0_236_1424)">
<path d="M8.98077 9.96154C8.28718 9.96154 7.62981 10.1058 7.00865 10.3942C6.3875 10.6827 5.85897 11.109 5.42308 11.6731C5.20513 11.9679 5.16346 12.2756 5.29808 12.5962C5.43269 12.9167 5.67308 13.0769 6.01923 13.0769C6.18833 13.0769 6.34603 13.0353 6.49231 12.9519C6.63846 12.8686 6.76923 12.7628 6.88461 12.6346C7.15385 12.3269 7.46942 12.0865 7.83135 11.9135C8.19327 11.7404 8.57647 11.6538 8.98096 11.6538C9.38558 11.6538 9.77122 11.7345 10.1379 11.8958C10.5047 12.0572 10.8177 12.2906 11.0769 12.5962C11.1923 12.7244 11.3194 12.8365 11.4583 12.9327C11.5972 13.0288 11.7522 13.0769 11.9231 13.0769C12.2655 13.0769 12.5178 12.9263 12.6798 12.625C12.842 12.3237 12.8263 12.0406 12.6327 11.7756C12.2109 11.1816 11.677 10.7308 11.031 10.4231C10.3849 10.1154 9.70154 9.96154 8.98077 9.96154ZM11.69 8.69231C12.0633 8.69231 12.3814 8.56167 12.6442 8.30038C12.9071 8.0391 13.0385 7.72179 13.0385 7.34846C13.0385 6.97513 12.9078 6.65705 12.6465 6.39423C12.3853 6.13141 12.0679 6 11.6946 6C11.3213 6 11.0032 6.13064 10.7404 6.39192C10.4776 6.65321 10.3462 6.97051 10.3462 7.34385C10.3462 7.71718 10.4768 8.03526 10.7381 8.29808C10.9994 8.5609 11.3167 8.69231 11.69 8.69231ZM6.30538 8.69231C6.67872 8.69231 6.99679 8.56167 7.25961 8.30038C7.52244 8.0391 7.65385 7.72179 7.65385 7.34846C7.65385 6.97513 7.5232 6.65705 7.26192 6.39423C7.00064 6.13141 6.68333 6 6.31 6C5.93667 6 5.61859 6.13064 5.35577 6.39192C5.09295 6.65321 4.96154 6.97051 4.96154 7.34385C4.96154 7.71718 5.09218 8.03526 5.35346 8.29808C5.61474 8.5609 5.93205 8.69231 6.30538 8.69231ZM9.00538 17C7.90385 17 6.86692 16.7915 5.89461 16.3746C4.92231 15.9577 4.07192 15.385 3.34346 14.6565C2.615 13.9281 2.04231 13.0779 1.62538 12.1062C1.20846 11.1344 1 10.096 1 8.99115C1 7.88628 1.20846 6.8509 1.62538 5.885C2.04231 4.9191 2.615 4.07192 3.34346 3.34346C4.07192 2.615 4.92205 2.04231 5.89385 1.62538C6.86564 1.20846 7.90397 1 9.00885 1C10.1137 1 11.1491 1.20846 12.115 1.62538C13.0809 2.04231 13.9281 2.615 14.6565 3.34346C15.385 4.07192 15.9577 4.92051 16.3746 5.88923C16.7915 6.85808 17 7.8932 17 8.99462C17 10.0962 16.7915 11.1331 16.3746 12.1054C15.9577 13.0777 15.385 13.9281 14.6565 14.6565C13.9281 15.385 13.0795 15.9577 12.1108 16.3746C11.1419 16.7915 10.1068 17 9.00538 17Z" fill="#E2F1FF"/>
</g>
</svg>
