<svg width="18" height="18" viewBox="0 0 18 18" fill="none" xmlns="http://www.w3.org/2000/svg">
<mask id="mask0_262_837" style="mask-type:alpha" maskUnits="userSpaceOnUse" x="0" y="0" width="18" height="18">
<rect width="18" height="18" fill="#D9D9D9"/>
</mask>
<g mask="url(#mask0_262_837)">
<path d="M8.99038 13.3462C9.43269 13.3462 9.86538 13.25 10.2885 13.0577C10.7115 12.8654 11.0962 12.6346 11.4423 12.3654C11.6346 12.1987 11.7276 12.0032 11.7212 11.7788C11.7147 11.5545 11.6186 11.3526 11.4327 11.1731C11.2468 11.0064 11.0417 10.9231 10.8173 10.9231C10.5929 10.9231 10.3782 11 10.1731 11.1538C10.0064 11.2692 9.82308 11.3654 9.62308 11.4423C9.42308 11.5192 9.21474 11.5577 8.99808 11.5577C8.78141 11.5577 8.57372 11.5192 8.375 11.4423C8.17628 11.3654 7.99359 11.2692 7.82692 11.1538C7.62179 11 7.40385 10.9199 7.17308 10.9135C6.94231 10.9071 6.73718 10.9872 6.55769 11.1538C6.3782 11.3205 6.28205 11.516 6.26923 11.7404C6.25641 11.9647 6.33974 12.1538 6.51923 12.3077C6.86538 12.6026 7.25 12.8494 7.67308 13.0481C8.09615 13.2468 8.53526 13.3462 8.99038 13.3462ZM9 17C7.90205 17 6.86692 16.7915 5.89461 16.3746C4.92231 15.9577 4.07192 15.385 3.34346 14.6565C2.615 13.9281 2.04231 13.0777 1.62538 12.1054C1.20846 11.1331 1 10.0979 1 9C1 7.88923 1.20846 6.8509 1.62538 5.885C2.04231 4.9191 2.615 4.07192 3.34346 3.34346C4.07192 2.615 4.92231 2.04231 5.89461 1.62538C6.86692 1.20846 7.90205 1 9 1C10.1108 1 11.1491 1.20846 12.115 1.62538C13.0809 2.04231 13.9281 2.615 14.6565 3.34346C15.385 4.07192 15.9577 4.9191 16.3746 5.885C16.7915 6.8509 17 7.88923 17 9C17 10.0979 16.7915 11.1331 16.3746 12.1054C15.9577 13.0777 15.385 13.9281 14.6565 14.6565C13.9281 15.385 13.0809 15.9577 12.115 16.3746C11.1491 16.7915 10.1108 17 9 17ZM6.23404 9.19231C6.68058 9.19231 7.07051 9.05769 7.40385 8.78846C7.73718 8.51923 8.00641 8.17949 8.21154 7.76923C8.3141 7.5641 8.3034 7.35994 8.17942 7.15673C8.05558 6.95365 7.87827 6.81904 7.6475 6.75288C7.42096 6.68686 7.21154 6.71474 7.01923 6.83654C6.82692 6.95833 6.65385 7.11538 6.5 7.30769C6.45731 7.34167 6.41673 7.36936 6.37827 7.39077C6.33981 7.41231 6.29064 7.42308 6.23077 7.42308C6.16808 7.42308 6.11397 7.41026 6.06846 7.38461C6.02282 7.35897 5.97436 7.3141 5.92308 7.25C5.79487 7.05769 5.63141 6.91026 5.43269 6.80769C5.23397 6.70513 5.02032 6.67949 4.79173 6.73077C4.55878 6.79487 4.38141 6.92949 4.25962 7.13461C4.13782 7.33974 4.12179 7.53846 4.21154 7.73077C4.41667 8.14103 4.69314 8.48718 5.04096 8.76923C5.38865 9.05128 5.78635 9.19231 6.23404 9.19231ZM11.7725 9.19231C12.219 9.19231 12.609 9.05769 12.9423 8.78846C13.2756 8.51923 13.5449 8.17949 13.75 7.76923C13.8526 7.5641 13.8419 7.35994 13.7179 7.15673C13.594 6.95365 13.4167 6.81904 13.186 6.75288C12.9594 6.68686 12.75 6.71474 12.5577 6.83654C12.3654 6.95833 12.1923 7.11538 12.0385 7.30769C11.9958 7.34167 11.9552 7.36936 11.9167 7.39077C11.8783 7.41231 11.8291 7.42308 11.7692 7.42308C11.7065 7.42308 11.6524 7.41026 11.6069 7.38461C11.5613 7.35897 11.5128 7.3141 11.4615 7.25C11.3333 7.05769 11.1699 6.91026 10.9712 6.80769C10.7724 6.70513 10.5588 6.67949 10.3302 6.73077C10.0972 6.79487 9.91987 6.92949 9.79808 7.13461C9.67628 7.33974 9.66026 7.53846 9.75 7.73077C9.95513 8.14103 10.2316 8.48718 10.5794 8.76923C10.9271 9.05128 11.3248 9.19231 11.7725 9.19231Z" fill="#E2F1FF"/>
</g>
</svg>
