<svg width="18" height="18" viewBox="0 0 18 18" fill="none" xmlns="http://www.w3.org/2000/svg">
<mask id="mask0_174_282" style="mask-type:alpha" maskUnits="userSpaceOnUse" x="0" y="0" width="18" height="18">
<rect width="18" height="18" fill="#D9D9D9"/>
</mask>
<g mask="url(#mask0_174_282)">
<path d="M11.69 8.69231C12.0633 8.69231 12.3814 8.56167 12.6442 8.30038C12.9071 8.0391 13.0385 7.72179 13.0385 7.34846C13.0385 6.97513 12.9078 6.65705 12.6465 6.39423C12.3853 6.13141 12.0679 6 11.6946 6C11.3213 6 11.0032 6.13064 10.7404 6.39192C10.4776 6.65321 10.3462 6.97051 10.3462 7.34385C10.3462 7.71718 10.4768 8.03526 10.7381 8.29808C10.9994 8.5609 11.3167 8.69231 11.69 8.69231ZM6.30538 8.69231C6.67872 8.69231 6.99679 8.56167 7.25962 8.30038C7.52244 8.0391 7.65385 7.72179 7.65385 7.34846C7.65385 6.97513 7.5232 6.65705 7.26192 6.39423C7.00064 6.13141 6.68333 6 6.31 6C5.93667 6 5.61859 6.13064 5.35577 6.39192C5.09295 6.65321 4.96154 6.97051 4.96154 7.34385C4.96154 7.71718 5.09218 8.03526 5.35346 8.29808C5.61474 8.5609 5.93205 8.69231 6.30538 8.69231ZM6.96154 11.9615H11.0385C11.2753 11.9615 11.4754 11.8797 11.639 11.716C11.8028 11.5524 11.8846 11.3522 11.8846 11.1154C11.8846 10.8786 11.8028 10.6784 11.639 10.5148C11.4754 10.3511 11.2753 10.2692 11.0385 10.2692H6.96154C6.72474 10.2692 6.52455 10.3511 6.36096 10.5148C6.19724 10.6784 6.11538 10.8786 6.11538 11.1154C6.11538 11.3522 6.19724 11.5524 6.36096 11.716C6.52455 11.8797 6.72474 11.9615 6.96154 11.9615ZM9.00538 17C7.90385 17 6.86692 16.7915 5.89461 16.3746C4.92231 15.9577 4.07192 15.385 3.34346 14.6565C2.615 13.9281 2.04231 13.0779 1.62538 12.1062C1.20846 11.1344 1 10.096 1 8.99115C1 7.88628 1.20846 6.8509 1.62538 5.885C2.04231 4.9191 2.615 4.07192 3.34346 3.34346C4.07192 2.615 4.92205 2.04231 5.89385 1.62538C6.86564 1.20846 7.90397 1 9.00885 1C10.1137 1 11.1491 1.20846 12.115 1.62538C13.0809 2.04231 13.9281 2.615 14.6565 3.34346C15.385 4.07192 15.9577 4.92051 16.3746 5.88923C16.7915 6.85808 17 7.8932 17 8.99461C17 10.0962 16.7915 11.1331 16.3746 12.1054C15.9577 13.0777 15.385 13.9281 14.6565 14.6565C13.9281 15.385 13.0795 15.9577 12.1108 16.3746C11.1419 16.7915 10.1068 17 9.00538 17Z" fill="#E2F1FF" />
</g>
</svg>
