<svg width="18" height="18" viewBox="0 0 18 18" fill="none" xmlns="http://www.w3.org/2000/svg">
<mask id="mask0_236_1409" style="mask-type:alpha" maskUnits="userSpaceOnUse" x="0" y="0" width="18" height="18">
<rect width="18" height="18" fill="#D9D9D9"/>
</mask>
<g mask="url(#mask0_236_1409)">
<path d="M9 17C7.89744 17 6.86218 16.7917 5.89423 16.375C4.92628 15.9583 4.07692 15.3846 3.34615 14.6538C2.61538 13.9231 2.04167 13.0737 1.625 12.1058C1.20833 11.1378 1 10.1026 1 9C1 7.88462 1.20833 6.83974 1.625 5.86538C2.04167 4.89103 2.61538 4.04167 3.34615 3.31731C4.07692 2.59295 4.92628 2.02564 5.89423 1.61538C6.86218 1.20513 7.89744 1 9 1C10.1154 1 11.1603 1.20513 12.1346 1.61538C13.109 2.02564 13.9583 2.59295 14.6827 3.31731C15.4071 4.04167 15.9744 4.89103 16.3846 5.86538C16.7949 6.83974 17 7.88462 17 9C17 10.1026 16.7949 11.1378 16.3846 12.1058C15.9744 13.0737 15.4071 13.9231 14.6827 14.6538C13.9583 15.3846 13.109 15.9583 12.1346 16.375C11.1603 16.7917 10.1154 17 9 17ZM11.6923 9.15385C12.0385 9.15385 12.3365 9.02564 12.5865 8.76923C12.8365 8.51282 12.9615 8.21154 12.9615 7.86538C12.9615 7.64744 12.9103 7.44231 12.8077 7.25C12.7051 7.05769 12.5513 6.90385 12.3462 6.78846L12.5769 6.63462C12.7308 6.55769 12.8301 6.43269 12.875 6.25962C12.9199 6.08654 12.8974 5.92949 12.8077 5.78846C12.7308 5.64744 12.6026 5.55769 12.4231 5.51923C12.2436 5.48077 12.0833 5.5 11.9423 5.57692L10.0385 6.67308C9.88461 6.76282 9.78205 6.90705 9.73077 7.10577C9.67949 7.30449 9.73718 7.53205 9.90385 7.78846C9.95513 7.8782 10.0353 7.93269 10.1442 7.95192C10.2532 7.97115 10.3526 7.95513 10.4423 7.90385L10.4038 7.92308C10.4167 8.28205 10.5449 8.57692 10.7885 8.80769C11.0321 9.03846 11.3333 9.15385 11.6923 9.15385ZM6.30769 9.15385C6.66667 9.15385 6.96795 9.03846 7.21154 8.80769C7.45513 8.57692 7.58333 8.28205 7.59615 7.92308L7.55769 7.90385C7.64744 7.95513 7.75 7.95513 7.86538 7.90385C7.98077 7.85256 8.08974 7.73718 8.19231 7.55769C8.28205 7.41667 8.30449 7.25 8.25961 7.05769C8.21474 6.86538 8.11538 6.73077 7.96154 6.65385L6.01923 5.55769C5.8782 5.46795 5.72115 5.44551 5.54808 5.49038C5.375 5.53526 5.25 5.62821 5.17308 5.76923C5.08333 5.91026 5.0609 6.07372 5.10577 6.25962C5.15064 6.44551 5.25 6.57692 5.40385 6.65385L5.65385 6.78846C5.44872 6.90385 5.29167 7.05769 5.18269 7.25C5.07372 7.44231 5.01923 7.64744 5.01923 7.86538C5.01923 8.21154 5.14744 8.51282 5.40385 8.76923C5.66026 9.02564 5.96154 9.15385 6.30769 9.15385ZM9.01923 9.96154C8.13461 9.96154 7.36538 10.2564 6.71154 10.8462C6.05769 11.4359 5.67949 12.1795 5.57692 13.0769H12.4231C12.3462 12.1795 11.9808 11.4359 11.3269 10.8462C10.6731 10.2564 9.90385 9.96154 9.01923 9.96154Z" fill="#E2F1FF"/>
</g>
</svg>
